<svg width="84" height="79" viewBox="0 0 84 79" fill="none" xmlns="http://www.w3.org/2000/svg">
<path d="M68.1512 27.0055C68.1512 27.0055 68.0532 27.0055 68.1512 27.0055C67.3672 27.0055 66.3873 27.0055 65.3094 27.1035C64.8195 27.1035 64.4275 27.2015 63.9376 27.2995C65.7014 26.7115 67.8572 27.0055 68.1512 27.0055Z" fill="#DC2E2F"/>
<path d="M73.6386 23.3797C73.2467 23.2817 72.9527 18.5781 72.7567 16.5203C72.5607 14.4625 71.2869 13.0906 68.7391 10.1509C66.1913 7.21118 64.7214 6.03529 62.9576 5.34935C61.1938 4.66342 55.6083 2.6056 51.5907 1.33172C50.8067 1.13574 49.9248 0.939755 48.8469 0.841764C48.063 0.743773 47.0831 0.743774 46.2012 0.743774C41.7916 0.743774 36.2061 1.33172 31.3066 1.33172C23.9572 1.33172 23.3693 1.91967 17.9798 3.48752C12.5903 4.95739 11.5124 5.64333 8.08269 10.2489C4.65301 14.8545 2.98716 19.558 2.98716 19.558C2.10525 24.7516 2.5952 24.7516 2.98716 26.5154C3.18315 27.4953 4.45703 27.6913 5.92689 27.6913C6.02488 26.7114 8.96461 25.3395 10.1405 24.6536C11.3164 23.9676 13.8642 24.4576 15.922 25.2415C17.5878 25.9274 21.0175 28.1812 22.1934 28.9652C22.3894 28.9652 22.6833 28.9652 22.9773 28.9652C25.7211 28.9652 29.0528 28.6712 34.8342 28.6712C36.892 28.6712 39.3418 28.6712 42.1835 28.7692C43.5554 28.8672 44.7313 28.8672 45.8092 28.8672C54.6284 28.8672 52.7666 27.3973 58.0581 27.3973H58.548C58.94 27.3973 59.332 27.3973 59.7239 27.3973H60.0179C60.4098 27.1033 61.2918 26.7114 62.9576 26.1234C66.0933 25.0455 69.719 25.9274 71.4828 26.5154C72.7567 26.3194 73.5406 26.1234 73.8346 25.9275C74.7165 25.4375 74.0306 23.4777 73.6386 23.3797ZM6.61283 14.9525C6.80881 13.3846 9.84653 12.8947 9.84653 12.8947C8.96461 15.7364 6.41684 16.5203 6.61283 14.9525ZM19.5476 5.9373C20.0376 4.36944 23.0753 4.46743 23.0753 4.46743C21.7034 7.11319 19.0577 7.50515 19.5476 5.9373ZM20.4296 16.4223C20.6255 14.8545 23.5653 14.3645 23.5653 14.3645C22.7813 17.2063 20.2336 17.9902 20.4296 16.4223ZM33.3644 9.66095C32.2865 8.48506 33.8543 5.83931 33.8543 5.83931C35.5202 8.38707 34.4423 10.9348 33.3644 9.66095ZM49.8268 17.2063C48.259 17.5982 46.7891 14.9525 46.7891 14.9525C49.7288 14.6585 51.3947 16.8143 49.8268 17.2063ZM49.8268 7.11319C48.259 7.50515 46.7891 4.8594 46.7891 4.8594C49.7288 4.56543 51.3947 6.72122 49.8268 7.11319ZM64.2315 14.6585C62.9576 13.6786 64.0355 10.8368 64.0355 10.8368C66.1913 12.9926 65.5054 15.6384 64.2315 14.6585Z" fill="#DC2E2F"/>
<path d="M14.5 36L15.5 33.5H16L21.5 35.5L31 39.5V44.5C30.6667 45.1667 29.9 46.6 29.5 47C29 47.5 23 49 23 49.5C23 49.9 18 48.6667 15.5 48L12.5 46V42L14.5 36Z" fill="white"/>
<path d="M50.5 47.5L48 43C48.3333 42.1667 49.2 40.5 50 40.5C50.8 40.5 55 36.8333 57 35L63 33L64 34.5L66 37.5L67 45.5L59.5 49L50.5 47.5Z" fill="white"/>
<path d="M79.4204 63.5558C79.4204 63.5558 77.6565 67.3775 74.2268 71.1011C70.7971 74.8248 69.6213 75.3148 64.1338 76.5886C58.6463 77.7645 58.1563 78.3525 50.611 78.3525C43.0657 78.3525 34.0506 79.4304 29.9349 78.3525C25.8193 77.2746 20.1358 75.6087 18.372 75.1188C16.6082 74.6288 15.0403 73.6489 12.4925 71.2971C12.3946 71.1991 12.1986 71.1011 12.1006 70.9052C13.0805 71.4931 13.9624 71.8851 15.0403 72.179C15.4323 72.277 16.0202 72.473 16.8042 72.669C19.2539 73.3549 23.3695 74.5308 26.5052 75.3148C27.9751 75.7067 29.9349 75.8047 32.6787 75.8047C34.9325 75.8047 37.2843 75.7067 39.832 75.6087C42.4778 75.5107 45.1235 75.4128 47.5733 75.4128C53.7467 75.4128 55.5106 75.1188 59.1362 74.2369C59.8222 74.0409 60.6061 73.8449 61.586 73.6489C67.4655 72.375 69.2293 71.6891 73.2469 67.4755C76.9706 63.5558 78.8324 59.5382 78.9304 59.4402L79.1264 59.0483L79.2244 58.6563C79.3224 58.4603 79.3224 58.2643 79.3224 58.0684C79.9103 59.3422 80.3023 59.3422 79.4204 63.5558Z" fill="#EDB31F"/>
<path d="M76.2847 57.8724C76.1867 58.1664 76.1867 58.4604 76.0887 58.7543C76.0887 58.7543 74.4229 62.38 70.9932 65.9077C67.5635 69.4354 66.4856 69.9253 61.0961 71.1012C55.7066 72.2771 55.2167 72.7671 47.7694 72.7671C42.8698 72.7671 37.1863 73.159 32.8747 73.159C30.7189 73.159 28.7591 73.061 27.4852 72.7671C23.4676 71.7871 17.8821 70.1213 16.1183 69.6313C14.3545 69.1414 12.8846 68.1615 10.3368 65.9077C9.55289 65.2218 8.86697 64.6338 8.27902 64.1438C7.10313 62.968 6.41719 62.086 6.22121 61.0081C6.02522 59.4403 5.82925 55.7166 5.33929 55.7166C4.94733 55.7166 4.26139 54.2468 5.33929 53.6588C6.3192 53.1689 13.1786 52.5809 19.45 52.5809C19.8419 52.5809 20.2339 52.5809 20.6259 52.5809C20.8219 52.5809 21.0178 52.5809 21.1158 52.5809C26.4073 52.5809 24.4475 51.405 33.3647 51.405C34.4426 51.405 35.6185 51.405 36.9904 51.503C38.2642 51.503 39.4401 51.601 40.518 51.601C40.812 51.895 41.204 52.4829 41.106 53.8548C40.91 56.6965 39.6361 58.9503 40.616 60.2242C41.5959 61.5961 42.9678 64.2418 43.6537 61.6941C44.3397 59.2443 45.4176 58.6564 44.7316 56.5986C44.1437 54.4428 43.7517 53.5608 44.7316 53.3648C45.7116 53.1689 47.2794 51.895 47.4754 53.6588C47.6714 55.5207 47.4754 57.1865 51.0031 57.0885C54.5307 56.9905 54.8247 53.4628 55.9026 52.4829C56.5885 51.797 57.3725 51.601 57.8624 51.405C58.2544 51.405 58.6463 51.405 59.0383 51.503C63.3499 51.797 65.7997 52.5809 68.6414 52.5809C68.7394 52.5809 68.9354 52.5809 69.0334 52.5809C70.4053 52.5809 71.8751 52.3849 73.051 52.3849C74.6189 52.3849 75.7948 52.5809 75.9907 53.2669C76.4807 54.5407 76.8727 54.7367 76.2847 57.8724Z" fill="#DC2E2F"/>
<path d="M38.2637 34.1585C38.2637 34.1585 37.6758 37.0002 33.4622 37.0982C30.6204 37.1962 25.2309 32.6886 20.2334 29.7489C20.2334 29.7489 20.2334 29.7489 20.1354 29.7489C19.6454 29.5529 19.0575 29.161 18.3716 28.769C18.3716 28.769 18.3716 28.769 18.2736 28.769C13.766 26.0253 9.94435 27.0052 8.67047 27.4951C8.37649 27.5931 8.27851 27.6911 8.27851 27.6911C8.27851 27.6911 8.18051 27.6911 8.18051 27.7891C6.61266 28.475 5.92671 30.0429 4.65283 32.5907C4.65283 32.5907 7.88654 30.1409 13.57 33.1786C13.57 33.1786 14.158 33.4726 15.1379 34.0605C13.864 34.8445 11.2182 36.9022 10.8263 40.2339C10.2383 44.7415 12.1001 48.0732 14.2559 49.1511C16.4117 50.131 22.6832 53.0708 27.7787 49.7391C31.7963 47.1913 32.1883 42.9777 32.1883 41.3118C32.7762 41.4098 33.3642 41.4098 33.8541 41.3118C38.8517 40.2339 38.2637 34.1585 38.2637 34.1585ZM30.0325 43.2717C29.8365 44.1536 28.5626 46.8973 25.4269 47.1913C22.2912 47.4853 16.9017 47.9752 15.4318 45.8194C13.962 43.6636 12.4921 44.6435 13.1781 41.2138C13.668 38.6661 15.0399 35.5304 15.6278 34.1585C16.2158 34.4525 16.9017 34.8444 17.6856 35.2364C16.9997 36.3143 16.4117 37.6862 16.5097 39.0581C16.7057 41.7038 16.9997 45.0355 20.3314 45.5255C23.6631 46.0154 26.0149 46.3094 27.5827 43.9576C29.0526 41.6058 30.2285 42.3897 30.0325 43.2717Z" fill="#DC2E2F"/>
<path d="M20.1357 29.6511C19.6457 29.4551 19.0578 29.0631 18.3718 28.6711C18.9598 28.9651 19.5477 29.3571 20.1357 29.6511Z" fill="#DC2E2F"/>
<path d="M63.937 27.2992C63.839 27.3972 63.643 27.3972 63.447 27.3972C63.545 27.3972 63.741 27.3972 63.937 27.2992Z" fill="#DC2E2F"/>
<path d="M80.1065 27.9851C79.7145 27.8871 79.4205 22.0077 79.2245 19.4599C79.0286 16.9122 78.4406 14.5604 75.8929 10.9347C74.129 8.58293 72.1692 7.70101 70.9933 6.81909C71.0913 6.91708 71.1893 7.01507 71.2873 7.21105L71.4833 7.40704C73.3451 10.6407 75.4029 12.0126 75.6969 15.1483C75.7949 15.7363 76.2848 16.8142 76.3828 17.5981C76.4808 18.48 76.5788 20.0479 76.6768 20.9298C77.0687 21.5177 77.3627 22.1057 77.5587 22.8896C78.0487 25.0454 77.1667 27.1032 75.5009 28.0831C74.9129 28.4751 73.835 28.7691 72.5612 28.965C71.5812 27.6912 70.5033 27.1032 68.3475 27.0052H68.2496C67.4656 27.0052 66.5837 27.0052 65.5058 27.1032C65.0159 27.1032 64.6239 27.2012 64.1339 27.2992C64.036 27.3972 63.84 27.3972 63.644 27.3972C63.644 27.3972 63.644 27.3972 63.546 27.3972C60.9002 28.1811 57.8625 30.1409 54.9228 32.1008C51.1991 34.5505 47.7695 37.0003 45.6137 37.0003C41.4 36.9023 40.8121 34.0606 40.8121 34.0606C40.8121 34.0606 40.2242 40.136 45.2217 41.0179C45.7116 41.1159 46.2016 41.1159 46.8875 41.0179C46.8875 42.6838 47.2795 46.8974 51.2971 49.4451C56.3927 52.6788 62.6641 49.8371 64.8199 48.8572C66.9757 47.8773 68.8375 44.4476 68.2496 39.94C67.8576 36.6083 65.2118 34.6485 63.938 33.7666C64.7219 33.2766 65.3098 32.9827 65.4078 32.8847C68.0536 32.8847 70.8953 32.7867 73.2471 32.4927C76.7748 32.1007 79.5185 31.6108 80.2045 31.1208C81.1844 30.4349 80.4984 28.0831 80.1065 27.9851ZM65.7018 41.1159C66.3877 44.5456 64.9179 43.5657 63.448 45.7215C61.9781 47.8773 56.5886 47.3873 53.4529 47.0934C50.3172 46.7994 49.0433 44.0556 48.8474 43.1737C48.6514 42.2918 49.8273 41.5079 51.3951 43.8597C52.963 46.2114 55.3148 45.9175 58.6464 45.4275C61.9781 44.9376 62.2721 41.6059 62.4681 38.9601C62.5661 37.5882 61.8801 36.2164 61.2922 35.1385C62.0761 34.7465 62.7621 34.3545 63.35 34.0606C63.84 35.5304 65.2118 38.5682 65.7018 41.1159Z" fill="#DC2E2F"/>
<path d="M11.2186 34.7464C11.2186 34.7464 5.24111 33.2765 2.30139 34.7464C-0.638342 36.2163 0.733534 37.5881 1.61545 39.646C2.49737 41.8018 2.88933 43.8596 4.65316 40.7239C6.417 37.4901 7.5929 38.1761 8.96477 38.1761C10.3366 38.2741 11.2186 34.7464 11.2186 34.7464Z" fill="#DC2E2F"/>
<path d="M9.45477 41.2141C10.0427 40.3322 4.7512 44.5458 3.47732 45.3297C2.20344 46.1137 2.49742 48.2694 2.30143 50.1313C2.10545 51.9931 0.145636 52.777 3.08536 52.3851C6.02509 51.9931 11.1206 50.5232 13.0804 51.1112C15.0403 51.6011 5.82911 46.7016 9.45477 41.2141Z" fill="#DC2E2F"/>
<path d="M68.1516 35.4324C68.1516 35.4324 71.2873 40.038 70.9934 41.0179C70.6994 41.9978 72.5612 43.3697 75.8929 42.2918C79.2246 41.2139 82.3603 45.7214 82.4583 42.1938C82.5563 38.6661 83.7322 36.6083 82.4583 35.4324C81.1844 34.2565 77.0688 33.2766 75.207 34.0605C73.4431 34.8445 68.1516 35.4324 68.1516 35.4324Z" fill="#DC2E2F"/>
<path d="M70.4045 43.5657C70.4045 43.5657 71.0905 47.0933 68.8367 48.5632C66.5829 50.0331 63.8391 50.425 68.8367 50.523C73.8342 50.621 75.99 49.8371 77.8518 51.307C79.8117 52.7768 80.4976 53.9527 80.5956 51.307C80.6936 48.6612 79.4197 48.0733 80.5956 46.8974C81.7715 45.7215 80.7916 45.0355 79.9096 44.5456C79.0277 44.0556 78.9297 42.9777 76.9699 44.0556C75.0101 45.1335 72.6583 45.2315 72.0704 44.5456C71.4824 43.8596 70.4045 43.5657 70.4045 43.5657Z" fill="#DC2E2F"/>
<path d="M20.1357 29.6511C19.6457 29.4551 19.0578 29.0631 18.3718 28.6711C18.9598 28.9651 19.5477 29.3571 20.1357 29.6511Z" fill="#DC2E2F"/>
<path d="M63.937 27.2992C63.839 27.3972 63.643 27.3972 63.447 27.3972C63.545 27.3972 63.741 27.3972 63.937 27.2992Z" fill="#DC2E2F"/>
</svg>
