<svg xmlns="http://www.w3.org/2000/svg" viewBox="0 0 400 300" width="406" height="306" class="illustration styles_illustrationTablet__1DWOa"><g id="_413_fast_food_flatline" data-name="#413_fast_food_flatline"><path d="M80.83,214.33H52.2c-4.22,0-6.93-4.74-5-8.69l15.11-30.48a5.55,5.55,0,0,1,5.5-3.15l13,1.3Z" fill="#fff"></path><path d="M80.83,214.83H52.2a6,6,0,0,1-5.12-2.91,6.66,6.66,0,0,1-.3-6.5l15.11-30.48a6.06,6.06,0,0,1,6-3.43l13,1.3a.5.5,0,0,1,.45.5v41A.5.5,0,0,1,80.83,214.83ZM67.3,172.48a5.05,5.05,0,0,0-4.51,2.91L47.68,205.86a5.65,5.65,0,0,0,.25,5.53,5,5,0,0,0,4.27,2.44H80.33V173.76l-12.54-1.25A4,4,0,0,0,67.3,172.48Z" fill="#231f20"></path><path d="M319.17,214.33H347.8c4.22,0,6.93-4.74,5-8.69l-15.11-30.48a5.55,5.55,0,0,0-5.5-3.15l-13,1.3Z" fill="#fff"></path><path d="M347.8,214.83H319.17a.5.5,0,0,1-.5-.5v-41a.5.5,0,0,1,.45-.5l13-1.3a6,6,0,0,1,6,3.43l15.11,30.48a6.66,6.66,0,0,1-.3,6.5A6,6,0,0,1,347.8,214.83Zm-28.13-1H347.8a5,5,0,0,0,4.27-2.44,5.65,5.65,0,0,0,.25-5.53l-15.11-30.47a5,5,0,0,0-5-2.88l-12.54,1.25Z" fill="#231f20"></path><path d="M336,248.5H64c-5.88,0-9.77-6.86-7.28-12.84l31.82-76.4a8,8,0,0,1,7.28-5.2H304.17a8,8,0,0,1,7.28,5.2l31.82,76.4C345.76,241.64,341.87,248.5,336,248.5Z" fill="#fff"></path><path d="M336,249H64a8.19,8.19,0,0,1-6.84-3.83,10.45,10.45,0,0,1-.9-9.71l31.82-76.39a8.55,8.55,0,0,1,7.74-5.51H304.17a8.55,8.55,0,0,1,7.74,5.51l31.82,76.39a10.45,10.45,0,0,1-.9,9.71A8.19,8.19,0,0,1,336,249ZM95.83,154.56A7.57,7.57,0,0,0,89,159.45l-31.82,76.4a9.44,9.44,0,0,0,.81,8.76A7.21,7.21,0,0,0,64,248H336a7.21,7.21,0,0,0,6-3.39,9.44,9.44,0,0,0,.81-8.76L311,159.45a7.57,7.57,0,0,0-6.82-4.89Z" fill="#231f20"></path><path d="M327.63,243.53H72.37a7.89,7.89,0,0,1-6.68-3.7,8.83,8.83,0,0,1-.66-8.41L94.9,164a8.09,8.09,0,0,1,7.33-4.92H297.77A8.09,8.09,0,0,1,305.1,164L335,231.42a8.83,8.83,0,0,1-.66,8.41A7.89,7.89,0,0,1,327.63,243.53Zm-225.4-83.4a7,7,0,0,0-6.32,4.26L66,231.86a7.73,7.73,0,0,0,.58,7.37,6.8,6.8,0,0,0,5.75,3.2H327.63a6.8,6.8,0,0,0,5.75-3.2,7.73,7.73,0,0,0,.58-7.37l-29.87-67.47a7,7,0,0,0-6.32-4.26Z" fill="#d1d3d4"></path><polygon points="128.22 158.24 123.21 88.43 131.9 84.66 144.74 151.12 128.22 158.24" fill="#fff"></polygon><path d="M128.21,158.74a.44.44,0,0,1-.25-.08.49.49,0,0,1-.24-.39l-5-69.8a.53.53,0,0,1,.3-.5l8.69-3.77a.54.54,0,0,1,.43,0,.54.54,0,0,1,.26.35L145.23,151a.5.5,0,0,1-.29.55l-16.53,7.12A.65.65,0,0,1,128.21,158.74Zm-4.48-70,4.93,68.75,15.51-6.68L131.52,85.36Z" fill="#231f20"></path><path d="M151.91,155.09c0-.76,28.7-69.49,28.7-69.49l8.44,2.83-18.57,65.9Z" fill="#fff"></path><path d="M151.91,155.59a.48.48,0,0,1-.34-.14.48.48,0,0,1-.16-.36c0-.74,18-44,28.74-69.68a.49.49,0,0,1,.62-.28L189.21,88a.5.5,0,0,1,.32.61L171,154.47a.48.48,0,0,1-.46.36l-18.57.76Zm29-69.37c-9.27,22.19-26.13,62.72-28.28,68.34l17.48-.71,18.34-65.09Z" fill="#231f20"></path><polygon points="134.73 162.26 152.48 81.82 162.3 83.9 147.53 163.4 134.73 162.26" fill="#fff"></polygon><path d="M147.53,163.9h0l-12.8-1.14a.46.46,0,0,1-.36-.2.48.48,0,0,1-.09-.4L152,81.72a.51.51,0,0,1,.59-.39l9.82,2.08a.5.5,0,0,1,.39.58L148,163.49A.49.49,0,0,1,147.53,163.9Zm-12.19-2.08,11.78,1,14.6-78.57-8.86-1.87Z" fill="#231f20"></path><polygon points="142.85 162.26 134.75 81.07 146.31 78.8 157.39 157.17 142.85 162.26" fill="#fff"></polygon><path d="M142.85,162.77a.5.5,0,0,1-.27-.08.53.53,0,0,1-.23-.38l-8.1-81.19a.5.5,0,0,1,.4-.54l11.56-2.27a.55.55,0,0,1,.39.09.5.5,0,0,1,.2.33l11.08,78.37a.49.49,0,0,1-.33.54L143,162.74A.45.45,0,0,1,142.85,162.77Zm-7.56-81.3,8,80.11,13.56-4.75-11-77.43Z" fill="#231f20"></path><path d="M126.64,158.24c.16-.13,6.2-66.22,6.2-66.22h10l-5.48,66.22Z" fill="#fff"></path><path d="M137.37,158.74H126.64a.51.51,0,0,1-.47-.34.44.44,0,0,1,0-.3c.24-1.46,4.15-43.83,6.18-66.12a.51.51,0,0,1,.5-.46h10a.52.52,0,0,1,.37.16.53.53,0,0,1,.13.38l-5.48,66.22A.5.5,0,0,1,137.37,158.74Zm-10.21-1h9.75l5.4-65.22h-9C128.65,143.34,127.53,155,127.16,157.74Z" fill="#231f20"></path><polygon points="139.19 156.98 146.31 97.12 155.88 98.06 151.16 160.38 139.19 156.98" fill="#fff"></polygon><path d="M151.16,160.88l-.14,0-12-3.4a.5.5,0,0,1-.36-.54l7.12-59.86a.5.5,0,0,1,.54-.44l9.58.95a.49.49,0,0,1,.45.53l-4.72,62.31a.5.5,0,0,1-.22.38A.47.47,0,0,1,151.16,160.88Zm-11.43-4.27,11,3.12,4.63-61.22-8.6-.84Z" fill="#231f20"></path><path d="M154.93,166.42c.57-.19,8.31-78,8.31-78H174l-5.29,70.81Z" fill="#fff"></path><path d="M154.93,166.92a.51.51,0,0,1-.46-.31.47.47,0,0,1,0-.43c.65-2.37,6.16-56.87,8.25-77.8a.5.5,0,0,1,.49-.45H174a.5.5,0,0,1,.49.54l-5.28,70.81a.54.54,0,0,1-.27.41l-13.78,7.17a.13.13,0,0,1-.08,0A.41.41,0,0,1,154.93,166.92Zm8.77-78c-.31,3-2.09,20.85-3.9,38.48-2.76,26.8-3.74,35.34-4.22,38.11l12.66-6.59,5.23-70Z" fill="#231f20"></path><path d="M179.86,142.06c.57-1.13,18.32-40,18.32-40L187.6,97.12l-27.38,53.06Z" fill="#fff"></path><path d="M160.22,150.68a.52.52,0,0,1-.37-.16.5.5,0,0,1-.07-.57l27.38-53.06a.48.48,0,0,1,.65-.22l10.58,4.91a.5.5,0,0,1,.24.66c-.72,1.59-17.76,38.92-18.32,40a.5.5,0,0,1-.26.24l-19.64,8.12A.41.41,0,0,1,160.22,150.68Zm27.61-52.91L161.29,149.2l18.2-7.53c1.31-2.77,16.09-35.17,18-39.4Zm-8,44.29h0Z" fill="#231f20"></path><path d="M157.39,147.16s18.5-41.92,18.69-41.54,9.63,3.4,9.63,3.4l-18.12,44Z" fill="#fff"></path><path d="M167.59,153.51a.51.51,0,0,1-.25-.06l-10.2-5.86a.5.5,0,0,1-.21-.63c18.47-41.83,18.7-41.84,19.14-41.85a.51.51,0,0,1,.37.16c.58.35,5.25,1.93,9.43,3.27a.51.51,0,0,1,.3.26.53.53,0,0,1,0,.41l-18.13,44a.53.53,0,0,1-.3.29ZM158,147l9.31,5.35,17.7-43c-5.67-1.82-7.88-2.64-8.77-3C174.68,109.41,164.77,131.68,158,147Z" fill="#231f20"></path><path d="M118.55,150.18S97.34,97.12,97.91,97.12,108.22,93,108.22,93l21,50.22Z" fill="#fff"></path><path d="M118.55,150.68l-.15,0a.52.52,0,0,1-.31-.29C97,97.58,97.29,97.14,97.49,96.84a.52.52,0,0,1,.42-.22c.56-.1,6.51-2.58,10.12-4.11a.46.46,0,0,1,.38,0,.53.53,0,0,1,.28.27l21,50.23a.49.49,0,0,1-.18.61l-10.7,7A.57.57,0,0,1,118.55,150.68ZM98.49,97.47c1.15,3.74,12.48,32.4,20.3,52l9.84-6.43L108,93.62C104.8,95,100.16,96.91,98.49,97.47Z" fill="#231f20"></path><polygon points="118.55 146.4 109.61 86.73 119.81 83.9 127.55 150.18 118.55 146.4" fill="#fff"></polygon><path d="M127.55,150.68a.43.43,0,0,1-.19,0l-9-3.78a.47.47,0,0,1-.3-.38l-8.94-59.67a.51.51,0,0,1,.36-.56l10.2-2.83a.46.46,0,0,1,.41.07.51.51,0,0,1,.22.35l7.74,66.28a.49.49,0,0,1-.2.46A.45.45,0,0,1,127.55,150.68ZM119,146.05l7.95,3.34-7.58-64.85-9.2,2.56Z" fill="#231f20"></path><polygon points="105.08 135.45 97.15 106.94 106.78 102.03 125.29 151.88 105.08 135.45" fill="#fff"></polygon><path d="M125.29,152.38a.54.54,0,0,1-.32-.11l-20.2-16.43a.53.53,0,0,1-.17-.25l-7.93-28.52a.5.5,0,0,1,.26-.58l9.63-4.91a.51.51,0,0,1,.4,0,.49.49,0,0,1,.29.29l18.51,49.86a.51.51,0,0,1-.18.58A.52.52,0,0,1,125.29,152.38Zm-19.77-17.22,18.66,15.18-17.67-47.61-8.77,4.47Z" fill="#231f20"></path><polygon points="118.55 144.51 106.78 109.2 116.03 106.94 132.84 150.18 118.55 144.51" fill="#fff"></polygon><path d="M132.84,150.68l-.18,0L118.37,145a.5.5,0,0,1-.29-.31l-11.77-35.31a.5.5,0,0,1,.35-.64l9.26-2.27a.49.49,0,0,1,.58.31L133.31,150a.52.52,0,0,1-.12.54A.5.5,0,0,1,132.84,150.68ZM119,144.14l13,5.15-16.23-41.76-8.3,2Z" fill="#231f20"></path><polygon points="127.74 161.32 120.38 103.35 128.69 102.03 136.05 153.01 127.74 161.32" fill="#fff"></polygon><path d="M127.74,161.82a.45.45,0,0,1-.16,0,.49.49,0,0,1-.33-.41l-7.37-58a.5.5,0,0,1,.42-.55l8.31-1.32a.45.45,0,0,1,.37.09.48.48,0,0,1,.2.33l7.37,51a.5.5,0,0,1-.15.43l-8.3,8.3A.51.51,0,0,1,127.74,161.82Zm-6.8-58,7.17,56.48,7.41-7.41-7.26-50.24Z" fill="#231f20"></path><polygon points="132.84 150.18 131.9 108.26 140.96 108.26 142.85 153.01 132.84 150.18" fill="#fff"></polygon><path d="M142.85,153.51a.34.34,0,0,1-.14,0l-10-2.83a.5.5,0,0,1-.37-.47l-.94-41.92a.5.5,0,0,1,.14-.36.48.48,0,0,1,.36-.15H141a.5.5,0,0,1,.5.48L143.35,153a.49.49,0,0,1-.19.42A.5.5,0,0,1,142.85,153.51Zm-9.52-3.71,9,2.54-1.84-43.58h-8.07Z" fill="#231f20"></path><path d="M143.79,148.67s-5.28-31.16-4.53-31.35,7.74-1.51,7.74-1.51l6.42,34.37Z" fill="#fff"></path><path d="M153.42,150.68h-.07l-9.63-1.51a.5.5,0,0,1-.42-.41c-5.36-31.61-4.72-31.77-4.16-31.91.76-.19,7.48-1.46,7.77-1.52a.56.56,0,0,1,.38.08.54.54,0,0,1,.21.32l6.42,34.37a.52.52,0,0,1-.14.44A.48.48,0,0,1,153.42,150.68Zm-9.19-2.45,8.57,1.35-6.2-33.18c-1.44.27-5.66,1.08-6.92,1.34C139.64,120.16,142.31,136.91,144.23,148.23Z" fill="#231f20"></path><polygon points="154.93 147.16 152.48 112.98 160.79 112.98 162.3 147.16 154.93 147.16" fill="#fff"></polygon><path d="M162.3,147.66h-7.37a.49.49,0,0,1-.49-.47L152,113a.5.5,0,0,1,.5-.54h8.31a.5.5,0,0,1,.5.48l1.51,34.18a.52.52,0,0,1-.14.36A.5.5,0,0,1,162.3,147.66Zm-6.9-1h6.38l-1.47-33.18H153Z" fill="#231f20"></path><polygon points="125.85 148.54 118.55 119.34 125.85 117.32 134.73 151.12 125.85 148.54" fill="#fff"></polygon><path d="M134.73,151.62a.34.34,0,0,1-.14,0L125.71,149a.48.48,0,0,1-.34-.35l-7.3-29.21a.49.49,0,0,1,.35-.6l7.3-2a.5.5,0,0,1,.38,0,.53.53,0,0,1,.24.31l8.87,33.8a.48.48,0,0,1-.13.48A.52.52,0,0,1,134.73,151.62Zm-8.46-3.48L134,150.4l-8.52-32.46-6.34,1.75Z" fill="#231f20"></path><path d="M116,195.63l-15.61-74.78s20.64,20.9,44.31,22.66,44.31-22.66,44.31-22.66L177,195.63S149,184,116,195.63Z" fill="#DC2E2F"></path><path d="M116,196.12a.54.54,0,0,1-.25-.06.48.48,0,0,1-.24-.33L99.94,121a.48.48,0,0,1,.25-.54.49.49,0,0,1,.59.09c.21.21,20.79,20.78,44,22.51s43.69-22.24,43.9-22.48a.48.48,0,0,1,.59-.13.49.49,0,0,1,.28.53L177.46,195.7a.5.5,0,0,1-.25.36.49.49,0,0,1-.44,0c-.27-.12-28.16-11.37-60.57,0A.44.44,0,0,1,116,196.12Zm-14.8-73.8L116.41,195c29.94-10.31,56-1.59,60.16,0l11.72-72.5c-4.69,5-23.1,23.09-43.59,21.57S106,126.7,101.24,122.32Z" fill="#231f20"></path><path d="M212.9,102.78c0,1.15,6,86.05,6,86.05,0,4,12.37,7.24,27.64,7.24s27.65-3.24,27.65-7.24l5.52-86.05S212.9,101.62,212.9,102.78Z" fill="#DC2E2F"></path><path d="M246.52,196.57c-13.83,0-28.14-2.9-28.14-7.74-.25-3.43-6-84.89-6-86.05a.57.57,0,0,1,.16-.39c1.15-1.13,47.33-.45,67.14-.11a.52.52,0,0,1,.36.16.5.5,0,0,1,.13.37l-5.52,86.05C274.67,193.67,260.36,196.57,246.52,196.57Zm-33.11-93.46c.35,5.94,5.91,84.86,6,85.68,0,3.29,10.9,6.78,27.14,6.78s27.15-3.49,27.15-6.74l5.49-85.56C254.19,102.84,217.22,102.47,213.41,103.11Zm0-.33Z" fill="#231f20"></path><path d="M210.12,89.32v9.17c0,5.26,16.3,9.53,36.4,9.53s36.4-4.27,36.4-9.53V89.32Z" fill="#fff"></path><path d="M246.52,108.52c-18.14,0-36.9-3.75-36.9-10V89.32a.5.5,0,0,1,.5-.5h72.8a.5.5,0,0,1,.5.5v9.17C283.42,104.77,264.66,108.52,246.52,108.52Zm-35.9-18.7v8.67c0,4.36,14.43,9,35.9,9s35.9-4.67,35.9-9V89.82Z" fill="#231f20"></path><ellipse cx="246.52" cy="89.32" rx="36.4" ry="9.53" fill="#fff"></ellipse><path d="M246.52,99.35c-18.14,0-36.9-3.75-36.9-10s18.76-10,36.9-10,36.9,3.76,36.9,10S264.66,99.35,246.52,99.35Zm0-19.07c-21.47,0-35.9,4.67-35.9,9s14.43,9,35.9,9,35.9-4.67,35.9-9S268,80.28,246.52,80.28Z" fill="#231f20"></path><path d="M230.69,84v4c0,2.29,7.09,4.14,15.83,4.14s15.84-1.85,15.84-4.14V84Z" fill="#fff"></path><path d="M246.52,92.64c-7.91,0-16.33-1.63-16.33-4.64V84a.5.5,0,0,1,.5-.5h31.67a.5.5,0,0,1,.5.5v4C262.86,91,254.44,92.64,246.52,92.64Zm-15.33-8.13V88c0,1.52,5.83,3.64,15.33,3.64s15.34-2.12,15.34-3.64V84.51Z" fill="#231f20"></path><ellipse cx="246.52" cy="84.01" rx="15.83" ry="4.15" fill="#fff"></ellipse><path d="M246.52,88.65c-7.91,0-16.33-1.63-16.33-4.64s8.42-4.65,16.33-4.65S262.86,81,262.86,84,254.44,88.65,246.52,88.65Zm0-8.29c-9.5,0-15.33,2.12-15.33,3.65s5.83,3.64,15.33,3.64,15.34-2.12,15.34-3.64S256,80.36,246.52,80.36Z" fill="#231f20"></path><path d="M269.8,50.34,251,51.19a1.84,1.84,0,0,0-1.74,1.6L246.29,84H250l2.65-29.2L270,54a1.85,1.85,0,0,0,1.76-1.93A1.81,1.81,0,0,0,269.8,50.34Z" fill="#fff"></path><path d="M250,84.51h-3.73a.5.5,0,0,1-.37-.17.52.52,0,0,1-.13-.38l2.93-31.22a2.36,2.36,0,0,1,2.22-2.05l18.83-.85a2.22,2.22,0,0,1,1.66.55,2.4,2.4,0,0,1,.8,1.69A2.36,2.36,0,0,1,270,54.53l-16.86.76-2.61,28.76A.51.51,0,0,1,250,84.51Zm-3.18-1h2.72l2.61-28.74a.51.51,0,0,1,.48-.46l17.3-.78a1.32,1.32,0,0,0,.93-.44,1.34,1.34,0,0,0,.35-1,1.42,1.42,0,0,0-.46-1,1.23,1.23,0,0,0-.93-.3h0L251,51.69a1.36,1.36,0,0,0-1.28,1.17Zm23-33.17h0Z" fill="#231f20"></path><path d="M270.8,202s0,6.44,2.34,8.78,14.82,6.63,26.32,6,18.34-3.7,20.29-6,1.43-8.78,1.43-8.78Z" fill="#231f20"></path><path d="M297.31,217.43c-10.86,0-22.18-3.89-24.55-6.26s-2.49-8.88-2.49-9.15a.53.53,0,0,1,.53-.53h50.38a.53.53,0,0,1,.52.49c0,.27.52,6.68-1.55,9.16-2.24,2.69-9.5,5.66-20.66,6.23C298.77,217.41,298,217.43,297.31,217.43Zm-26-14.88c.06,1.55.39,6.09,2.17,7.87,2,2,14.26,6.48,25.93,5.9,10.78-.55,17.87-3.42,19.9-5.86,1.49-1.79,1.41-6.4,1.34-7.91Z" fill="#231f20"></path><path d="M323.84,125.18v79s-8.58,6.63-25.75,6.63a77.91,77.91,0,0,1-29.82-5.86s0-7,0-16.77c0-14.17.06-34.23,0-47.7,0-7.89,0-13.5-.07-14.31C268.06,123,272,119,272,119v-5.17h47.19v6.14S323.84,122.84,323.84,125.18Z" fill="#DC2E2F"></path><path d="M298.09,211.3a79.21,79.21,0,0,1-30-5.9.48.48,0,0,1-.29-.46s0-7,0-16.77c0-15.55.05-35.17,0-47.7,0-10.88,0-13.77-.07-14.28-.2-3,3-6.65,3.7-7.44v-5a.5.5,0,0,1,.5-.5h47.19a.5.5,0,0,1,.5.5v5.87c1,.69,4.68,3.22,4.68,5.53v79a.53.53,0,0,1-.19.4C323.79,204.84,315.23,211.3,298.09,211.3Zm-29.32-6.68a79.08,79.08,0,0,0,29.32,5.68c15.39,0,23.89-5.44,25.25-6.39V125.18c0-1.69-3.21-4.06-4.44-4.83a.5.5,0,0,1-.24-.43v-5.64H272.47V119a.48.48,0,0,1-.14.34s-3.75,4-3.57,6.84c.06.75.08,5.58.08,14.34,0,12.53,0,32.15,0,47.7C268.79,196.74,268.77,203.13,268.77,204.62Zm55.07-.45h0Z" fill="#231f20"></path><ellipse cx="295.56" cy="113.78" rx="23.6" ry="6.14" fill="#fff"></ellipse><path d="M295.56,120.42c-11.68,0-24.09-2.33-24.09-6.64s12.41-6.65,24.09-6.65,24.1,2.33,24.1,6.65S307.25,120.42,295.56,120.42Zm0-12.29c-13.61,0-23.09,3-23.09,5.65s9.48,5.64,23.09,5.64,23.1-3,23.1-5.64S309.18,108.13,295.56,108.13Z" fill="#231f20"></path><path d="M286.34,114.73a3.53,3.53,0,0,1-2-.41.7.7,0,0,1-.25-.61c.1-1,2.85-2.63,5.15-3.85a.42.42,0,0,1,.27-.06c1,.07,4.22.39,4.74,1.61a1.08,1.08,0,0,1-.23,1.17c-1.43,1.73-4.4,1.85-4.53,1.86A21.39,21.39,0,0,1,286.34,114.73Zm-1.14-1.08a14.92,14.92,0,0,0,4.18-.2c.08,0,2.71-.13,3.85-1.51.08-.09.08-.14.08-.14-.09-.33-1.74-.83-3.75-1A24.07,24.07,0,0,0,285.2,113.65Z" fill="#d1d3d4"></path><path d="M297.92,115.6c-3.47,0-6.09-1.25-6.09-2.9s2.62-2.9,6.09-2.9,6.09,1.25,6.09,2.9S301.39,115.6,297.92,115.6Zm0-4.8c-2.91,0-5.09,1-5.09,1.9s2.18,1.9,5.09,1.9,5.09-1,5.09-1.9S300.83,110.8,297.92,110.8Z" fill="#d1d3d4"></path><path d="M323.84,140.65v47.78c-7.71,1.91-18,3.9-27.25,3.9-9.66,0-20.49-2.18-28.29-4.16,0-14.17.06-34.23,0-47.7a160.33,160.33,0,0,0,28.25,2.83A158.25,158.25,0,0,0,323.84,140.65Z" fill="#fff"></path><path d="M296.59,192.83c-9.85,0-20.89-2.27-28.41-4.17a.51.51,0,0,1-.38-.49c0-15.55.05-35.17,0-47.7a.53.53,0,0,1,.18-.38.57.57,0,0,1,.42-.11,160.13,160.13,0,0,0,28.15,2.82,159.25,159.25,0,0,0,27.16-2.64.47.47,0,0,1,.41.11.51.51,0,0,1,.18.38v47.78a.51.51,0,0,1-.38.49C316.73,190.7,306.12,192.83,296.59,192.83Zm-27.79-5.05c7.46,1.87,18.2,4.05,27.79,4.05,9.27,0,19.59-2,26.75-3.79V141.25a159.83,159.83,0,0,1-26.75,2.55,160.84,160.84,0,0,1-27.75-2.73C268.85,153.52,268.84,172.54,268.8,187.78Z" fill="#231f20"></path><path d="M157.22,189.68s-1.69,2.58-1.94,8.74,2.62,7.7,5.49,10.57,28.24,8.16,45.92,7.28S245,212.69,252.56,205c4.33-4.38,3.16-20.29-1.7-20.73S157.22,189.68,157.22,189.68Z" fill="#fff"></path><path d="M202.75,216.86c-16.84,0-39.42-4.61-42.33-7.52-.42-.42-.85-.82-1.26-1.2-2.37-2.2-4.6-4.28-4.38-9.74.26-6.22,1.95-8.88,2-9a.51.51,0,0,1,.39-.22c3.63-.24,88.9-5.87,93.72-5.44,1.51.14,2.77,1.48,3.65,3.89,1.93,5.26,1.54,14.46-1.65,17.7-6.28,6.37-21.83,10.21-46.19,11.43C205.44,216.83,204.12,216.86,202.75,216.86Zm-45.22-26.69c-.38.71-1.54,3.31-1.75,8.27s1.68,6.75,4.06,9c.42.39.85.79,1.29,1.22,2.74,2.75,27.71,8,45.54,7.14,23.77-1.19,39.51-5,45.53-11.14,2.9-2.93,3.21-11.76,1.42-16.65-.73-2-1.72-3.13-2.8-3.23C246.17,184.33,162.93,189.81,157.53,190.17Z" fill="#231f20"></path><path d="M159.56,180.57c-1.91,0-3.36,2.77-4.39,4.09a33.81,33.81,0,0,1-6.1,6,10.37,10.37,0,0,1,4.3,3.1c1,1.48,1,3.8-.46,4.81a12.37,12.37,0,0,1,7.39-.26c2.35.8,3.51,2.66,5.93,3.21a37.87,37.87,0,0,1,8.83,2.69,7.62,7.62,0,0,1,7.53-5.69,7.45,7.45,0,0,1,6.78-1.34,5.28,5.28,0,0,1,.81-4.47,15.55,15.55,0,0,1,3.31-3.32L166.1,179.16c-1.91-.72-4.18-1.4-5.88-.27l.84.46" fill="#DC2E2F"></path><path d="M175.06,204.74a.54.54,0,0,1-.22-.05,34.19,34.19,0,0,0-7.94-2.48l-.78-.17a9.18,9.18,0,0,1-3.37-1.73,9.58,9.58,0,0,0-2.61-1.49,11.61,11.61,0,0,0-7.09.26.5.5,0,0,1-.42-.89c1.22-.84,1.18-2.87.33-4.12a9.9,9.9,0,0,0-4.11-2.93.51.51,0,0,1-.28-.4.5.5,0,0,1,.19-.45,33.08,33.08,0,0,0,6-5.93c.2-.26.42-.57.65-.9,1-1.5,2.34-3.36,4.13-3.39a.49.49,0,0,1,.51.49.52.52,0,0,1-.49.51c-1.28,0-2.42,1.65-3.33,3-.24.35-.47.67-.68.94a33.92,33.92,0,0,1-5.55,5.62,9.6,9.6,0,0,1,3.78,2.92,4.56,4.56,0,0,1,.46,4.23,11.42,11.42,0,0,1,6.21.13,10.71,10.71,0,0,1,2.87,1.63,8.23,8.23,0,0,0,3,1.56l.78.18a37.51,37.51,0,0,1,7.62,2.29,8.13,8.13,0,0,1,7.68-5.49,8,8,0,0,1,6.28-1.51,6.06,6.06,0,0,1,1.07-4.07,13.84,13.84,0,0,1,2.73-2.88l-26.58-10c-1.61-.6-3.25-1.08-4.59-.7a.5.5,0,0,1,.17.66.49.49,0,0,1-.68.19l-.84-.45a.53.53,0,0,1-.26-.42.52.52,0,0,1,.23-.44c1.82-1.21,4.11-.61,6.32.22L193.66,189a.49.49,0,0,1,.14.85,15.7,15.7,0,0,0-3.2,3.21,4.81,4.81,0,0,0-.76,4,.5.5,0,0,1-.62.64,7,7,0,0,0-6.31,1.24.54.54,0,0,1-.34.12,7.13,7.13,0,0,0-7,5.3.53.53,0,0,1-.28.34A.54.54,0,0,1,175.06,204.74Z" fill="#231f20"></path><path d="M214,189.18c-7.86,0-15.82,0-23.65.54-2.91.2-3.74,1.75-4.93,4.4-.61,1.36-2.49,5.2-.92,6.52.54.45,2.86,0,3.62.09a13.22,13.22,0,0,1,3.49,1c.82.36,5.12,4.31,5.21,4.29A27.87,27.87,0,0,1,211,207.65a9.09,9.09,0,0,1,12.11-6.72,9.81,9.81,0,0,1,3.5-6.36c-3.15-.54-5.15-3.78-8.15-4.88A12.89,12.89,0,0,0,214,189.18Z" fill="#DC2E2F"></path><path d="M211,208.15a.43.43,0,0,1-.19,0,27,27,0,0,0-14-1.62c-.27,0-.26,0-1.7-1.22a41.3,41.3,0,0,0-3.8-3.11,12.41,12.41,0,0,0-3.34-.93,8.49,8.49,0,0,0-1.16,0c-1.34.11-2.25.14-2.72-.25-1.78-1.49-.12-5.12.68-6.87l.1-.23c1.25-2.77,2.18-4.48,5.36-4.7,6.62-.46,13.41-.49,20-.52l3.7,0a13.35,13.35,0,0,1,4.68.54,13.72,13.72,0,0,1,3.77,2.42,9.8,9.8,0,0,0,4.3,2.44.51.51,0,0,1,.23.88,9.27,9.27,0,0,0-3.32,6,.5.5,0,0,1-.24.37.49.49,0,0,1-.44,0,8.58,8.58,0,0,0-11.44,6.35.51.51,0,0,1-.25.34A.53.53,0,0,1,211,208.15Zm-10.21-3a28.09,28.09,0,0,1,9.85,1.78,9.58,9.58,0,0,1,12.06-6.71,10.31,10.31,0,0,1,2.88-5.44,13.31,13.31,0,0,1-3.8-2.41,12.61,12.61,0,0,0-3.49-2.26,12.39,12.39,0,0,0-4.34-.48h0l-3.7,0c-6.55,0-13.32.06-19.91.51-2.62.19-3.35,1.54-4.52,4.12l-.1.23c-.59,1.29-2.14,4.69-.95,5.69a6.5,6.5,0,0,0,2,0,7.21,7.21,0,0,1,1.35,0,13,13,0,0,1,3.63,1,33.4,33.4,0,0,1,4.05,3.28l1.1.95A28.11,28.11,0,0,1,200.82,205.2Zm13.16-16h0Z" fill="#231f20"></path><path d="M243.28,185.86c-3.89,1.6-7.59,2.14-10.61,4.93-.88.81-10.55,6.67-11.29,5.28.72,1.36,2.72,1.13,4.11,1.8.91.43,1.52,1.36,2.45,1.74.68.27,1.41,0,2.06.26s4.73,2.62,4.17,3.48a5.85,5.85,0,0,1,5.66-2.28,11.79,11.79,0,0,1,5.7,2.81c.29-2.6.64-5.35,2.29-7.38a13.86,13.86,0,0,1,3.09-2.56l7.66-5.19a6.22,6.22,0,0,1-1.36-8.61Z" fill="#DC2E2F"></path><path d="M245.53,204.38a.52.52,0,0,1-.32-.11,11.07,11.07,0,0,0-5.45-2.7,5.31,5.31,0,0,0-5.17,2.05h0a.5.5,0,0,1-.69.15.49.49,0,0,1-.18-.62c-.22-.67-3.17-2.54-3.89-2.81a3,3,0,0,0-.82-.09,3.21,3.21,0,0,1-1.26-.18,5.34,5.34,0,0,1-1.43-1,4.63,4.63,0,0,0-1-.77,7,7,0,0,0-1.51-.45,3.7,3.7,0,0,1-2.82-1.56h0a.51.51,0,0,1,.2-.68.5.5,0,0,1,.68.21c1,.37,9.31-4.31,10.51-5.42,2.23-2.06,4.79-2.92,7.5-3.84,1.06-.36,2.16-.73,3.26-1.18l.19.46-.19-.46L257,179.68a.5.5,0,0,1,.59.16.51.51,0,0,1,0,.61,5.71,5.71,0,0,0,1.25,7.88.51.51,0,0,1,.22.42.49.49,0,0,1-.22.41l-7.66,5.19a13.43,13.43,0,0,0-3,2.47c-1.61,2-1.93,4.83-2.19,7.12a.51.51,0,0,1-.31.41A.57.57,0,0,1,245.53,204.38ZM239,200.51a6.16,6.16,0,0,1,1,.07,11.21,11.21,0,0,1,5.23,2.36c.27-2.24.72-4.81,2.3-6.75a14.25,14.25,0,0,1,3.2-2.67l7.09-4.8a6.55,6.55,0,0,1-2.08-3.92,6.66,6.66,0,0,1,.4-3.64l-12.57,5.17c-1.13.46-2.24.83-3.31,1.2-2.61.88-5.08,1.71-7.15,3.63-.65.6-7,4.58-10.15,5.45a9.38,9.38,0,0,0,1.11.29,7.25,7.25,0,0,1,1.74.52,5.62,5.62,0,0,1,1.27.91,4.24,4.24,0,0,0,1.15.81,2.32,2.32,0,0,0,.89.11,3.61,3.61,0,0,1,1.15.15,15.59,15.59,0,0,1,4.19,2.92A6.43,6.43,0,0,1,239,200.51Z" fill="#231f20"></path><path d="M165.39,160.3c-5.8,2-12.52,7.67-12.39,14.21a9.47,9.47,0,0,0,.91,4.6c.2.36.46.75.34,1.14a1.29,1.29,0,0,1-.39.54c-3.88,3.83.93,9.92,4.59,12.15,4.23,2.57,9.27,3.42,14.21,3.78,15.78,1.14,31.87,2.12,47.72,1.55,8.49-.3,17.4-1.83,25.08-5.61a24.46,24.46,0,0,0,9.41-7.53c2.31-3.29,3.83-8.42,1.48-12.13-.53-.83-1.47-1.37-1.85-2.28a5.89,5.89,0,0,1,0-2.74c.47-5.79-6.27-10.42-11.15-11.8a39.34,39.34,0,0,0-8.53-1.12c-8.26-.46-16.57-.92-24.79.07-9.76,1.18-19.3,4.4-29.14,4.37C175.66,159.49,170.3,158.59,165.39,160.3Z" fill="#231f20"></path><path d="M210.73,199c-12.95,0-25.84-.84-38.11-1.72-4.28-.31-9.79-1-14.44-3.86-2.74-1.67-5.86-5.22-6.24-8.53a5.13,5.13,0,0,1,1.55-4.45,1.28,1.28,0,0,0,.26-.31c0-.14-.12-.42-.25-.64l-.05-.08a10.15,10.15,0,0,1-1-4.86c-.13-6.63,6.47-12.54,12.75-14.72h0c3.75-1.31,7.79-1.13,11.68-1,1.3.06,2.65.12,3.95.13H181c5.94,0,11.89-1.22,17.65-2.39,3.69-.75,7.51-1.53,11.31-2,8.28-1,16.72-.52,24.88-.06a39.32,39.32,0,0,1,8.65,1.13c5.08,1.44,12,6.23,11.52,12.36,0,.2,0,.41-.06.61a3.79,3.79,0,0,0,.07,1.88,3.62,3.62,0,0,0,.9,1.14,6.26,6.26,0,0,1,.91,1.06c2.43,3.83,1,9.15-1.5,12.72-2.11,3-5.26,5.54-9.61,7.69-6.9,3.41-15.41,5.31-25.29,5.67C217.18,198.92,214,199,210.73,199ZM165.57,160.8c-5.93,2.06-12.16,7.56-12,13.7a9,9,0,0,0,.84,4.35,2,2,0,0,1,.39,1.55,1.78,1.78,0,0,1-.53.76,4.11,4.11,0,0,0-1.24,3.58c.35,3,3.21,6.21,5.74,7.74,4.46,2.72,9.81,3.41,14,3.71,15.29,1.1,31.56,2.14,47.66,1.55,9.73-.35,18.1-2.22,24.86-5.56a23.49,23.49,0,0,0,9.22-7.35c2.29-3.28,3.64-8.12,1.47-11.55a6.09,6.09,0,0,0-.77-.87,4.77,4.77,0,0,1-1.13-1.48,4.72,4.72,0,0,1-.14-2.41c0-.2,0-.39.06-.58.44-5.47-6.16-9.95-10.76-11.25a38.57,38.57,0,0,0-8.42-1.1c-8.11-.45-16.5-.92-24.7.06-3.75.46-7.55,1.23-11.22,2C193,158.81,187,160,181,160h-.12c-1.33,0-2.68-.06-4-.12-3.79-.18-7.72-.35-11.28.89Z" fill="#231f20"></path><path d="M200.56,187.7a185.29,185.29,0,0,1-45-5.81.53.53,0,0,1-.37-.65.55.55,0,0,1,.66-.37c.58.17,59.18,16.48,94.69-6.48a.53.53,0,0,1,.73.16.52.52,0,0,1-.16.73C236.32,184.87,217.54,187.7,200.56,187.7Z" fill="#fff"></path><path d="M167.89,171.73s0,15.49,1.66,17.48,5-.17,5.13-3-1.65-7.45,0-7.12,2,5.48,5,1.75,2.07-.84,5.47-2.75,7.62-6.38,7.62-6.38S172.7,168.5,167.89,171.73Z" fill="#DC2E2F"></path><path d="M171.16,190.48a2.52,2.52,0,0,1-2-.95c-1.73-2.07-1.77-16.19-1.77-17.8a.49.49,0,0,1,.22-.41c4.9-3.31,24.37-.21,25.2-.08a.5.5,0,0,1,.28.84c-.17.18-4.31,4.55-7.74,6.47a4.4,4.4,0,0,1-2.92.77c-.54-.06-.86-.08-2.4,1.85-.87,1.1-1.62,1.58-2.36,1.54-1-.07-1.52-1-2-1.84-.34-.56-.72-1.2-1.07-1.27-.25.24,0,1.8.2,2.82a17.88,17.88,0,0,1,.39,3.84,4.67,4.67,0,0,1-3,4.06A3.14,3.14,0,0,1,171.16,190.48ZM168.4,172c0,6,.43,15.55,1.54,16.88a1.61,1.61,0,0,0,1.88.48,3.69,3.69,0,0,0,2.37-3.17,17.58,17.58,0,0,0-.39-3.61c-.31-1.83-.54-3.15.06-3.74a1,1,0,0,1,.92-.23c.79.16,1.27,1,1.74,1.74.37.62.79,1.32,1.22,1.35.21,0,.69-.12,1.52-1.16,1.71-2.15,2.29-2.32,3.27-2.23a3.46,3.46,0,0,0,2.34-.64,37.42,37.42,0,0,0,6.83-5.6C187.74,171.5,172.71,169.52,168.4,172Z" fill="#231f20"></path><path d="M245.35,158.08c-5.31-2.67-11.94-1.59-16.67,1.81s-7.25,6.64-7.3,12.73c0,2.49.43,6.45,2.8,7.79,1,.58,2.44.08,3.43,1s.48,1.82,1.11,2.86,2,.29,2.71-.5,1.73-1.78,2.67-1.27a1.74,1.74,0,0,1,.76,1.08c.41,1.37,0,2.85,0,4.28s.72,3.12,2.14,3.34a2.78,2.78,0,0,0,2.76-2,13.3,13.3,0,0,0,.49-3.63,10.07,10.07,0,0,1,4.35-7.7,6.1,6.1,0,0,0,1.55-1.09c1.5-1.75-.38-4.53.37-6.71a9.69,9.69,0,0,1,1.69-2.42,6.24,6.24,0,0,0,.8-6.19A7.83,7.83,0,0,0,245.35,158.08Z" fill="#DC2E2F"></path><path d="M237.34,191.76l-.38,0c-1.73-.27-2.53-2.17-2.56-3.82,0-.51,0-1,.08-1.5a7.51,7.51,0,0,0-.1-2.65,1.27,1.27,0,0,0-.51-.78c-.61-.32-1.42.45-2.07,1.16a3.26,3.26,0,0,1-2.41,1.11,1.4,1.4,0,0,1-1.1-.68,3.64,3.64,0,0,1-.46-1.47,1.94,1.94,0,0,0-.56-1.29,2.55,2.55,0,0,0-1.67-.55,4,4,0,0,1-1.66-.42c-2.82-1.58-3.08-6.28-3.06-8.22.06-6.49,2.92-9.84,7.51-13.14,5.22-3.75,12-4.47,17.18-1.85h0a8.19,8.19,0,0,1,3.93,3.68,6.68,6.68,0,0,1-.85,6.7l-.56.69a5.3,5.3,0,0,0-1.06,1.6,6.22,6.22,0,0,0,.05,2.84c.24,1.41.48,2.87-.51,4a4.62,4.62,0,0,1-1.32,1l-.35.21a9.48,9.48,0,0,0-4.11,7.32c0,.3,0,.6-.06.9a9.4,9.4,0,0,1-.46,2.86A3.38,3.38,0,0,1,237.34,191.76Zm-3.77-9.86a1.61,1.61,0,0,1,.77.2,2.2,2.2,0,0,1,1,1.37,8.11,8.11,0,0,1,.13,3c0,.49-.07.95-.07,1.41,0,1.28.61,2.67,1.71,2.85a2.3,2.3,0,0,0,2.22-1.66,8.47,8.47,0,0,0,.4-2.56c0-.32,0-.63.07-.94a10.42,10.42,0,0,1,4.58-8.08l.37-.22a3.79,3.79,0,0,0,1.06-.78c.69-.8.5-1.91.28-3.2a6.86,6.86,0,0,1,0-3.34,6.14,6.14,0,0,1,1.23-1.91c.18-.22.36-.43.53-.65a5.72,5.72,0,0,0,.74-5.68,7.2,7.2,0,0,0-3.47-3.2h0c-4.81-2.42-11.3-1.72-16.14,1.76-4.46,3.2-7,6.25-7.1,12.34,0,1.38.13,6,2.55,7.34a3.12,3.12,0,0,0,1.27.29,3.45,3.45,0,0,1,2.26.83,2.88,2.88,0,0,1,.86,1.86,2.7,2.7,0,0,0,.33,1.1.42.42,0,0,0,.34.21,2.34,2.34,0,0,0,1.57-.79A4,4,0,0,1,233.57,181.9Z" fill="#231f20"></path><path d="M178.82,156.27s-21.49,11.31-23.08,14.29,1.39,2.65,2.55,2.49,38.92,3.14,53.66,16.23c0,0,32-25,37.05-27.17S180.32,156.55,178.82,156.27Z" fill="#DC2E2F"></path><path d="M212,189.78a.55.55,0,0,1-.34-.13c-14.49-12.87-51.33-16.31-53.26-16.11-1.1.16-2.66.27-3.3-.66-.43-.6-.34-1.44.25-2.55,1.62-3,21.08-13.34,23.29-14.5a.53.53,0,0,1,.33-.05h0c.35.06,4.58.29,9.94.59,51.16,2.84,60.64,4,60.89,5.42,0,.19,0,.54-.55.78-4.95,2.12-36.63,26.85-36.95,27.1A.5.5,0,0,1,212,189.78Zm-53.5-17.24c3.47,0,38.88,3.5,53.51,16.09,3.46-2.7,30.21-23.51,36.31-26.72-5.54-1.55-44.38-3.7-59.46-4.54-6.05-.34-9.08-.51-9.89-.58-8.59,4.52-21.63,11.93-22.74,14-.38.71-.49,1.26-.31,1.51s.62.49,2.35.24Zm20.38-16.27Z" fill="#231f20"></path><ellipse cx="173.18" cy="161.78" rx="18.95" ry="10.02" fill="#DC2E2F"></ellipse><path d="M173.18,172.3c-10.73,0-19.45-4.72-19.45-10.52s8.72-10.53,19.45-10.53,19.45,4.73,19.45,10.53S183.9,172.3,173.18,172.3Zm0-20.05c-10.18,0-18.45,4.28-18.45,9.53s8.27,9.52,18.45,9.52,18.45-4.27,18.45-9.52S183.35,152.25,173.18,152.25Z" fill="#231f20"></path><ellipse cx="235.2" cy="159.94" rx="18.95" ry="10.02" fill="#DC2E2F"></ellipse><path d="M235.2,170.46c-10.72,0-19.45-4.72-19.45-10.52s8.73-10.52,19.45-10.52,19.45,4.72,19.45,10.52S245.93,170.46,235.2,170.46Zm0-20c-10.17,0-18.45,4.27-18.45,9.52s8.28,9.52,18.45,9.52,18.45-4.27,18.45-9.52S245.38,150.42,235.2,150.42Z" fill="#231f20"></path><ellipse cx="206.77" cy="166.93" rx="13.95" ry="7.9" fill="#DC2E2F"></ellipse><path d="M206.77,175.34c-8,0-14.45-3.77-14.45-8.41s6.48-8.4,14.45-8.4,14.46,3.77,14.46,8.4S214.74,175.34,206.77,175.34Zm0-15.81c-7.42,0-13.45,3.32-13.45,7.4s6,7.41,13.45,7.41,13.46-3.33,13.46-7.41S214.19,159.53,206.77,159.53Z" fill="#231f20"></path><ellipse cx="206.69" cy="163.89" rx="13.95" ry="7.9" fill="#fff"></ellipse><path d="M206.69,172.3c-8,0-14.45-3.77-14.45-8.41s6.48-8.4,14.45-8.4,14.46,3.77,14.46,8.4S214.66,172.3,206.69,172.3Zm0-15.81c-7.42,0-13.45,3.32-13.45,7.4s6,7.41,13.45,7.41,13.46-3.32,13.46-7.41S214.11,156.49,206.69,156.49Z" fill="#231f20"></path><ellipse cx="174.69" cy="158.11" rx="18.95" ry="10.02" fill="#fff"></ellipse><path d="M174.69,168.63c-10.72,0-19.45-4.72-19.45-10.52s8.73-10.53,19.45-10.53,19.45,4.72,19.45,10.53S185.42,168.63,174.69,168.63Zm0-20c-10.17,0-18.45,4.28-18.45,9.53s8.28,9.52,18.45,9.52,18.45-4.27,18.45-9.52S184.86,148.58,174.69,148.58Z" fill="#231f20"></path><ellipse cx="233.61" cy="156.27" rx="18.95" ry="10.02" fill="#fff"></ellipse><path d="M233.61,166.79c-10.73,0-19.45-4.72-19.45-10.52s8.72-10.52,19.45-10.52,19.45,4.72,19.45,10.52S244.33,166.79,233.61,166.79Zm0-20c-10.18,0-18.45,4.27-18.45,9.52s8.27,9.52,18.45,9.52,18.45-4.27,18.45-9.52S243.78,146.75,233.61,146.75Z" fill="#231f20"></path><path d="M254.07,149.36c0,12.17-22.57,14.91-50.4,14.91s-50.41-2.74-50.41-14.91,22.57-29.14,50.41-29.14S254.07,137.2,254.07,149.36Z" fill="#fff"></path><path d="M203.67,164.77c-35.21,0-50.91-4.75-50.91-15.41,0-6.21,5.75-13.71,15-19.55a68.95,68.95,0,0,1,71.82,0c9.25,5.84,15,13.34,15,19.55C254.57,160,238.87,164.77,203.67,164.77Zm0-44.05c-28.48,0-49.91,17.38-49.91,28.64,0,12.77,26.67,14.41,49.91,14.41s49.9-1.64,49.9-14.41C253.57,138.1,232.14,120.72,203.67,120.72Z" fill="#231f20"></path><path d="M184.62,149.37a.52.52,0,0,1-.47-.33.5.5,0,0,1,.3-.64l5-1.82a.49.49,0,0,1,.64.29.52.52,0,0,1-.3.65l-5,1.82A.47.47,0,0,1,184.62,149.37Z" fill="#d1d3d4"></path><path d="M203.67,145.06a.49.49,0,0,1-.35-.14l-5.3-5.13a.5.5,0,0,1,0-.71.49.49,0,0,1,.7,0L204,144.2a.5.5,0,0,1-.35.86Z" fill="#d1d3d4"></path><path d="M179.65,142.5a.45.45,0,0,1-.16,0l-5-1.74a.5.5,0,0,1,.33-.95l5,1.74a.51.51,0,0,1-.17,1Z" fill="#d1d3d4"></path><path d="M201,156.52a.53.53,0,0,1-.11-1.05l6.62-1.44a.53.53,0,1,1,.22,1l-6.62,1.44Z" fill="#fff"></path><path d="M220.65,142.74a.58.58,0,0,1-.19,0l-6.88-2.82A.5.5,0,1,1,214,139l6.87,2.81a.5.5,0,0,1,.28.65A.49.49,0,0,1,220.65,142.74Z" fill="#d1d3d4"></path><path d="M232.1,152.25H221.38a.5.5,0,0,1-.5-.5.5.5,0,0,1,.5-.5H232.1a.51.51,0,0,1,.5.5A.5.5,0,0,1,232.1,152.25Z" fill="#d1d3d4"></path><path d="M227.9,134.85a.45.45,0,0,1-.16,0L219.13,132a.5.5,0,0,1-.32-.63.52.52,0,0,1,.64-.32l8.61,2.88a.5.5,0,0,1,.32.63A.51.51,0,0,1,227.9,134.85Z" fill="#d1d3d4"></path><path d="M192.74,130.65a.5.5,0,0,1-.48-.34.5.5,0,0,1,.32-.63l8.29-2.65a.5.5,0,0,1,.63.32.51.51,0,0,1-.33.63l-8.28,2.65A.39.39,0,0,1,192.74,130.65Z" fill="#d1d3d4"></path><path d="M171.28,152.31a.5.5,0,0,1-.41-.22l-3.38-4.75a.5.5,0,0,1,.12-.7.49.49,0,0,1,.69.12l3.38,4.76a.5.5,0,0,1-.11.69A.46.46,0,0,1,171.28,152.31Z" fill="#d1d3d4"></path><path d="M196.88,157.82a.5.5,0,0,1-.07-1l9.81-1.33a.51.51,0,0,1,.57.43.5.5,0,0,1-.43.56l-9.82,1.33Z" fill="#d1d3d4"></path><path d="M240,144.12a.47.47,0,0,1-.16,0l-7.88-2.5a.5.5,0,0,1,.31-.95l7.88,2.5a.5.5,0,0,1-.15,1Z" fill="#d1d3d4"></path><path d="M189.59,137.94a.52.52,0,0,1-.21,0c-.74-.35-4.48-2.12-5.19-3.29a.5.5,0,0,1,.86-.52c.42.71,3.14,2.15,4.75,2.9a.5.5,0,0,1-.21.95Z" fill="#d1d3d4"></path><path d="M140.54,177s25.79,20.44,31.45,23.71,39,23.51,39,23.51-39.66,6.16-61.28,4.17-64.09-1.93-72.92-7.28,5.65-21.74,14-27.47S113,170.86,140.54,177Z" fill="#fff"></path><path d="M159.47,229.29c-3.53,0-6.87-.12-9.85-.39-6.53-.6-14.93-1-23.82-1.45-21.16-1-43-2.11-49.31-5.9a5.85,5.85,0,0,1-3-5.1c-.22-7.54,10.76-18.94,17-23.21,1.35-.93,2.84-2.15,4.56-3.56,8.9-7.31,22.35-18.35,45.64-13.16a.54.54,0,0,1,.2.1c.26.2,25.83,20.45,31.39,23.67s38.64,23.31,39,23.52a.5.5,0,0,1,.23.52.49.49,0,0,1-.41.4C210.69,224.78,181.32,229.29,159.47,229.29Zm-30.42-53.1c-16,0-26.22,8.37-33.41,14.26-1.73,1.43-3.24,2.66-4.62,3.62-7,4.83-16.72,15.68-16.53,22.35A4.85,4.85,0,0,0,77,220.69c6.06,3.67,28.79,4.78,48.85,5.76,8.9.44,17.31.85,23.86,1.45,19.07,1.75,52.64-2.91,59.8-4-6-3.63-32.79-19.9-37.77-22.79-5.51-3.19-29.48-22.14-31.42-23.68A52.42,52.42,0,0,0,129.05,176.19Z" fill="#231f20"></path><path d="M80.42,217.89S85.77,207,91.53,200.62s20.44-17.85,28.57-21S140.54,177,140.54,177s3.57-3.77,0-7.74a9.3,9.3,0,0,0-8.34-3s-19.24-.6-34.92,10.91-26.59,27.93-29.37,38.57S80.42,217.89,80.42,217.89Z" fill="#fff"></path><path d="M70.84,221.62a4.14,4.14,0,0,1-2.58-.72c-1.21-.94-1.49-2.71-.83-5.25,3.63-13.92,17.62-30.08,29.56-38.84,15.21-11.17,34-11,35.17-11a9.7,9.7,0,0,1,8.75,3.14c3.84,4.26,0,8.37,0,8.41a.48.48,0,0,1-.39.16c-.12,0-12.29-.55-20.23,2.55C112,183.31,97.32,195,91.9,201c-5.64,6.22-11,17-11,17.15a.53.53,0,0,1-.21.21C79.92,218.73,74.61,221.62,70.84,221.62Zm61-54.83c-2.78,0-20.09.44-34.23,10.82C82,189.05,71.1,205.54,68.4,215.91c-.55,2.11-.4,3.53.47,4.19,2.21,1.71,8.68-1.21,11.17-2.58.65-1.31,5.74-11.3,11.12-17.23s20.3-17.86,28.76-21.17c7.61-3,18.58-2.69,20.4-2.62a5,5,0,0,0-.15-6.89,8.7,8.7,0,0,0-7.86-2.82h-.5Zm-51.39,51.1h0Z" fill="#231f20"></path><path d="M74.07,226.42c-.59-.21-10.52-6-5-12.5s10.91-1,11.31,4c0,0,40.87,2.57,42.86,4.16s1.19,6.55,4.76,4.37,1.78-4.17,4.76-4.57,28.18,0,29.56.8,1.59,6.15,4.37,3.37,3.77-5.36,6-3.77,4.76.6,6.75.2S211,224.23,211,224.23l-5.33,5.36S94.31,233.56,74.07,226.42Z" fill="#231f20"></path><path d="M142.47,231.24c-28.92,0-58.88-.9-68.58-4.32h0c-.52-.19-5.65-3.13-6.78-7.29a6.41,6.41,0,0,1,1.59-6c2.89-3.4,5.51-3.47,7.19-2.93,2.5.81,4.59,3.65,5,6.74,7.77.49,40.74,2.67,42.72,4.25a6.07,6.07,0,0,1,1.58,2.82c.31.91.6,1.76,1.09,1.94a2,2,0,0,0,1.48-.43,5.27,5.27,0,0,0,2.38-2.67,2.77,2.77,0,0,1,2.59-2c2.57-.34,28.29-.06,29.9.86a4.35,4.35,0,0,1,1.38,2.16c.34.81.77,1.83,1.24,1.93.26.05.65-.18,1.11-.63.69-.69,1.27-1.38,1.79-2,1.51-1.77,2.82-3.31,4.84-1.84,1.65,1.2,3.62.74,5.36.33.33-.08.66-.16,1-.22,2-.4,28.64,1.55,31.67,1.78a.53.53,0,0,1,.46.34.55.55,0,0,1-.12.56L206,230a.52.52,0,0,1-.36.16C203.29,230.2,173.47,231.24,142.47,231.24Zm-68.22-5.32c19.51,6.88,125.7,3.34,131.14,3.15l4.37-4.39c-11.83-.87-28.87-2-30.23-1.71l-.94.21c-1.86.44-4.18,1-6.22-.5-1.17-.86-1.76-.28-3.42,1.67-.53.62-1.13,1.32-1.85,2a2.32,2.32,0,0,1-2.06.92c-1-.2-1.52-1.4-2-2.56a4.26,4.26,0,0,0-.93-1.64c-1.52-.7-26.26-1.13-29.23-.73a1.79,1.79,0,0,0-1.77,1.35,6.29,6.29,0,0,1-2.79,3.14,2.83,2.83,0,0,1-2.39.52c-1-.35-1.34-1.43-1.73-2.58a5.21,5.21,0,0,0-1.24-2.35c-1.54-1.09-26.93-3.06-42.57-4.05a.52.52,0,0,1-.49-.48c-.23-2.86-2.09-5.55-4.32-6.27-2-.64-4.08.26-6.06,2.6a5.42,5.42,0,0,0-1.4,5C69,222.92,73.73,225.71,74.25,225.92Z" fill="#231f20"></path><ellipse cx="111.97" cy="207.78" rx="12.35" ry="5.79" fill="#DC2E2F"></ellipse><ellipse cx="135.48" cy="192.43" rx="11.16" ry="6.85" fill="#DC2E2F"></ellipse><ellipse cx="139.2" cy="211.86" rx="11.01" ry="5.67" transform="translate(-32.53 25.39) rotate(-9.34)" fill="#DC2E2F"></ellipse><ellipse cx="167.33" cy="208.97" rx="6.98" ry="10.86" transform="translate(-69.52 333.74) rotate(-79.09)" fill="#DC2E2F"></ellipse><path d="M114.84,189.91a.51.51,0,0,1-.46-.31.5.5,0,0,1,.28-.65l9.47-3.83a.51.51,0,0,1,.65.28.49.49,0,0,1-.27.65L115,189.88A.58.58,0,0,1,114.84,189.91Z" fill="#d1d3d4"></path><path d="M148.18,202.74a.5.5,0,0,1-.47-.31.51.51,0,0,1,.28-.65l7.44-3a.5.5,0,1,1,.37.92l-7.44,3Z" fill="#d1d3d4"></path><path d="M188.36,219.08a.45.45,0,0,1-.25-.07l-6.25-3.57a.5.5,0,1,1,.49-.87l6.26,3.58a.5.5,0,0,1-.25.93Z" fill="#d1d3d4"></path><path d="M151.9,191.7a.51.51,0,0,1-.36-.15l-3.72-3.7a.5.5,0,0,1,0-.7.5.5,0,0,1,.71,0l3.72,3.69a.5.5,0,0,1,0,.71A.49.49,0,0,1,151.9,191.7Z" fill="#d1d3d4"></path><path d="M127.44,201.26a.41.41,0,0,1-.21,0l-5.75-2.71a.5.5,0,0,1-.24-.67.49.49,0,0,1,.66-.24l5.76,2.72a.5.5,0,0,1,.23.67A.48.48,0,0,1,127.44,201.26Z" fill="#d1d3d4"></path><path d="M99.62,214.07H91.53a.5.5,0,0,1-.5-.5.5.5,0,0,1,.5-.5h8.09a.5.5,0,0,1,.5.5A.51.51,0,0,1,99.62,214.07Z" fill="#d1d3d4"></path><path d="M99.62,199.9a.51.51,0,0,1-.46-.29.5.5,0,0,1,.25-.66L106,196a.5.5,0,1,1,.41.91l-6.6,3A.45.45,0,0,1,99.62,199.9Z" fill="#d1d3d4"></path><path d="M125.46,217.29h-5a.5.5,0,0,1-.5-.5.5.5,0,0,1,.5-.5h5a.51.51,0,0,1,.5.5A.5.5,0,0,1,125.46,217.29Z" fill="#d1d3d4"></path><path d="M159.19,217.29h-.12l-7.29-1.79a.5.5,0,0,1-.37-.6.51.51,0,0,1,.61-.37l7.29,1.79a.5.5,0,0,1,.37.6A.5.5,0,0,1,159.19,217.29Z" fill="#d1d3d4"></path></g></svg>