<svg width="631" height="81" viewBox="0 0 631 81" fill="none" xmlns="http://www.w3.org/2000/svg">
<path d="M98.2862 19.0804L97.7358 19.1721H97.6441L94.9839 19.5391L92.5071 19.906L92.6905 26.0521V26.1438L93.1492 33.7576L92.9657 37.7939L92.874 41.4632L92.5988 45.3159L92.5071 48.9852V52.5628L92.874 55.3148L94.8921 55.4983L95.7177 55.59V54.6727L95.8095 50.8199L95.9929 47.0589L96.0847 43.2978L96.3598 39.5368L95.9012 31.923L95.626 28.0702L95.8095 23.3918L95.9012 22.7497L96.3598 22.291L97.5524 22.0158L100.213 21.7407L102.506 21.282L103.056 21.1903L103.515 21.0068L103.882 20.3647V20.0895L104.432 17.7961L104.524 14.4938L104.891 11.0079L104.708 7.61383L104.432 6.9717L104.065 6.4213L103.24 5.96264L102.689 5.87091L102.139 5.77917L101.772 8.98982L101.68 12.5674L100.946 16.2367V16.6036L100.58 17.4292L100.121 18.3465L99.2036 18.7135L98.2862 19.0804Z" fill="#EDB31F"/>
<path d="M41.2285 73.7531V74.5787L40.8616 75.6795L40.5864 76.5968L39.8525 77.239L39.2104 77.5142L38.293 77.6976H37.284L33.7981 77.7894L29.8536 77.5142L26.3678 77.0555L23.1572 76.6886L19.9465 77.239L16.1855 77.6059L12.3327 77.239L9.03034 76.7803L5.63623 77.0555L5.8197 78.7984L6.09489 79.4405L6.46182 79.624L7.83781 79.9909L11.3237 80.1744L18.2953 80.3579L21.7812 80.8165L25.3587 80.3579L28.8446 80.1744L32.3304 80.2661L35.8163 80.8165L39.3938 81L42.5127 80.8165L43.1549 80.6331L43.6135 80.0827L43.9805 79.624L44.1639 78.7984L44.3474 72.0102L44.4391 68.7996L44.0722 65.4972L43.8887 64.3047L43.3383 63.9377L42.7879 63.7543L41.2285 63.5708L41.1368 66.3228L41.5037 69.9003L41.412 73.2027L41.2285 73.7531Z" fill="#EDB31F"/>
<path d="M32.1475 52.3793L32.3309 55.7734L33.6152 55.6817L34.716 55.4982H34.9912L35.1746 53.7553L35.0829 49.4439V45.2242L34.8994 41.0045V39.9954L33.1565 37.7938L32.7896 37.3352L32.2392 36.2344L32.3309 39.445V48.1596L32.1475 52.3793Z" fill="#EDB31F"/>
<path d="M104.524 65.3138L104.341 64.7634L103.974 64.3047L103.424 64.1213L103.057 63.9378L101.956 63.8461L101.864 66.4146L101.956 69.9004L101.864 71.9185L101.956 75.3126L101.681 76.23L101.039 76.8721L100.029 77.4225L98.5617 77.6977L95.6263 77.7894L93.7916 77.6977L90.3058 77.4225L83.2424 77.606L76.2707 76.9638L72.9683 77.0556L69.299 77.4225L66.4553 77.3308L66.7305 78.7068L67.0057 79.6241L68.0148 79.991L71.4089 80.4497L74.8947 80.6331L78.564 80.2662L82.0499 80.0827L85.5357 80.4497L89.0215 80.8166L95.9932 80.6331L99.6625 80.7249L101.405 80.8166L102.781 80.6331L103.607 80.1745L104.066 79.8993L104.341 79.3489L104.524 78.615L104.8 77.4225L104.891 75.4044L104.8 72.0103L104.891 68.6162L104.524 65.3138Z" fill="#EDB31F"/>
<path d="M64.7122 43.0226L66.9138 40.4541L67.0973 36.4179V35.7758L66.4552 36.5096L63.7032 39.7203L58.3827 46.325L55.8142 49.8108L53.0622 53.1132L51.7779 54.0306L51.2275 54.4892L51.3193 54.5809L51.5945 54.8561L52.0531 55.3148L52.787 55.6817H53.7961L54.6216 55.1313L59.5752 49.7191L62.052 46.325L64.7122 43.0226Z" fill="#EDB31F"/>
<path d="M0.0405273 71.4597L0.223993 73.2026L0.407458 73.753L0.866121 74.0282L2.15038 74.3034L5.63622 74.4869L9.03032 74.3034L16.1855 75.129L19.6713 74.7621L23.1571 74.2117L26.643 74.5786L30.1288 75.129L33.7981 75.3125L37.284 75.129L37.8344 74.9455L38.3848 74.3951L38.66 74.0282L38.9352 73.2026L39.0269 69.8085L38.66 66.4144L38.8434 63.112L38.3848 59.8097L38.2013 58.7089L37.6509 58.2502L37.1922 58.0667L35.6328 57.975L34.2568 58.1585L31.4131 58.2502L30.771 58.0667L30.2206 57.6998L30.0371 57.2412L29.8536 56.599L29.6702 52.2876L29.9454 48.0679L29.8536 43.7565V39.5368L29.6702 35.3171L29.5784 31.0056L29.7619 30.547L30.404 30.2718L30.9544 30.0883L31.5048 30.2718L32.1469 31.1891L33.2477 33.1155L34.9907 36.0509L37.284 38.5277L39.4855 40.821L41.5037 43.6647L43.3383 46.4167L45.7234 48.8935L48.1084 51.1868L48.5671 51.5537L49.3009 52.0124H50.31L51.1356 51.462L53.8876 48.1596L56.3643 44.7655L59.1163 41.4631L61.7766 38.069L64.6203 34.8584L67.3723 31.7395L68.0144 31.3726H68.84L69.3904 31.8312L69.6656 32.5651L69.4821 36.5096L69.2986 44.5821V48.6183L69.6656 52.5628V56.599L69.5738 57.0577L69.2069 57.6081L68.6565 57.6998L67.8309 57.975H65.0789L62.2352 57.8833L61.6848 58.0667L61.0427 58.4337L60.8592 58.8923L60.584 59.7179L60.2171 63.112L60.4006 66.4144L60.4923 69.8085L61.0427 73.1109L61.3179 74.0282L62.327 74.3034L65.7211 74.8538L69.2986 74.9455L72.8762 74.5786L76.3621 74.3951L79.8479 74.8538L83.3337 75.129L90.3971 74.9455L93.9747 75.2207L95.7176 75.3125L97.4606 75.129L98.2862 74.7621L98.7448 74.3951L99.02 73.9365L99.2035 73.2026L99.3869 71.7349L99.5704 69.8085L99.3869 66.4144L99.5704 63.0203L99.2035 59.7179L99.02 59.0758L98.5613 58.7089L98.1027 58.4337L97.3688 58.2502L92.0483 57.6081L91.4979 57.5163L90.8558 57.4246L90.5806 56.5073L90.0302 52.838V48.9852L90.122 45.2242L90.3971 41.3714L90.4889 37.7021L90.6723 33.8493L90.3054 26.2355L89.9385 22.4745L90.122 18.7135L90.3054 18.0713L90.6723 17.7044L91.8649 17.4292L94.6169 17.0623L97.2771 16.6953L97.7358 16.6036L98.2862 16.3284L98.5613 15.778V15.4111L99.2035 12.1087L99.2952 8.80633L99.6621 5.32049L99.3869 1.92638L99.2035 1.37599L98.8366 0.733861L98.011 0.275198L97.4606 0.183465L95.6259 0L93.883 0.0917326L90.3971 0.642128L83.242 0.36693L79.7562 0.550396L76.2703 0.733861L72.7845 0.36693L69.2986 0.183465L68.4731 0.36693L67.8309 1.00906L66.9136 2.20158L65.9045 3.85277L63.9782 6.78821L59.4833 12.1087L55.3553 17.7044L53.2454 20.3646L50.6769 22.658L50.1265 23.0249L49.4844 23.3001L48.8423 23.0249L48.4753 22.7497L46.182 20.2729L45.4482 19.0804L44.3474 17.2457L41.9623 14.8607L39.669 12.2922L35.7245 6.51302L33.6147 3.85277L31.4131 1.19252L30.8627 0.550396L30.2206 0.183465H26.7347L23.1571 0.36693H12.6996L9.12206 0.550396L5.54448 0.275198L4.53543 0.36693L2.15038 0.733861L1.50825 0.825594L0.957853 1.00906L0.407458 2.01812L0.223993 4.03624L0.407458 5.41222L0.866121 8.80633L0.407458 12.1087L0.315725 13.6682L0.49919 15.5028L0.682656 16.1449L1.04959 16.6953L1.59998 17.0623L2.05864 17.154L3.70983 17.2457L5.17755 16.9705L6.92047 16.6953L8.113 16.7871L8.66339 16.9705L8.84686 17.5209L8.93859 18.7135L9.12206 22.5662L8.93859 26.2355L9.30552 30.0883L9.48899 33.8493L9.12206 37.7021L8.93859 41.3714V45.2242L8.84686 48.9852L9.03032 52.838L9.12206 56.599V57.6998L8.57166 58.4337L2.05864 58.2502L0.866121 58.7089L0.223993 59.7179L0.0405273 61.0022L0.223993 63.0203L0.682656 66.4144L0.223993 69.8085L0.0405273 71.4597Z" fill="#0B0B0B"/>
<path d="M197.266 76.9636L196.073 77.2388L192.129 77.3305L183.781 77.0553L179.745 76.8719L175.617 77.0553H169.746L169.654 77.9726L169.838 78.7065L170.204 79.2569L170.847 79.8073L171.672 80.0825L175.617 80.1742L179.469 80.3577L183.781 80.266L187.909 80.0825L192.22 80.266L196.348 80.6329L200.384 80.4494L201.302 80.3577L202.127 80.266L202.861 79.899L203.412 79.1652L203.595 78.2478L203.687 75.2207L203.779 72.1935L203.595 65.9557V65.497L203.228 65.0383L202.861 64.5797L202.403 64.121L201.944 63.7541L201.302 63.4789L200.843 63.5706V69.7167L200.66 72.6521L200.568 74.1199L200.384 74.9455L199.742 75.7711L199.375 76.138L198.733 76.5967L198.091 76.8719L197.266 76.9636Z" fill="#EDB31F"/>
<path d="M171.489 11.1914L173.141 14.5855L174.883 17.9796L178.461 25.1347L180.02 28.6206L183.139 35.7757L184.515 39.5367L185.983 43.1143L187.359 46.6919L188.735 50.2694L190.295 53.0214L191.671 55.4982H193.505L194.147 55.4065L191.854 49.7191L190.478 46.1415L189.102 42.3804L187.543 38.8946L185.983 35.317L184.424 31.8312L182.772 28.1619L179.103 21.3737L177.452 17.8878L175.709 14.3103L173.049 7.70551L172.407 6.87992L171.765 6.60472L171.031 6.42126L169.196 6.23779L169.838 7.70551L171.489 11.1914Z" fill="#EDB31F"/>
<path d="M148.372 80.0826L149.014 79.8074L149.565 79.0735L149.748 78.1562V75.5877L149.84 72.8357L149.748 70.1754V66.5979L149.656 66.0475L149.014 65.2219L148.189 64.3963L147.455 64.2128L146.537 63.9376V64.3963L146.629 67.24L146.537 69.9002V72.5605L146.446 74.2117L146.354 75.129L145.804 76.1381L144.886 76.7802L144.061 76.9637L142.868 77.0554L141.951 77.2389L133.787 77.4223H125.164L116.816 76.9637H114.981V78.2479L115.073 79.1652L115.44 79.9908L116.266 80.266L117.091 80.3578L125.072 80.1743L133.603 80.633H139.474L147.455 80.3578L148.372 80.0826Z" fill="#EDB31F"/>
<path d="M155.803 57.975L160.022 58.2502L161.032 58.342L162.224 57.6081L162.866 57.5164L164.334 57.3329L164.426 57.1495L164.15 56.2321L163.783 55.0396L163.508 54.8561L160.114 55.0396L155.803 55.4065L147.547 54.7644L144.061 54.8561H141.217L140.759 56.0487L140.483 56.8743H141.951L143.052 57.1495L143.602 57.2412L144.52 58.0668H152.225L155.803 57.975Z" fill="#EDB31F"/>
<path d="M106.818 66.5979L106.726 69.6251V72.6523L106.909 73.7531L107.551 74.3952L108.285 74.6704L108.927 74.7621L116.816 74.5787L125.348 74.9456H133.787L141.859 74.7621L142.685 74.6704L143.419 74.3035L144.061 73.5696L144.153 72.5606V69.9921L144.244 67.3318L144.153 64.6716V61.9196L143.878 61.0023L143.327 60.1767L142.593 59.8097L141.859 59.6263H139.933L139.199 59.4428L138.649 58.8924L138.098 58.1585L137.915 57.5164V56.7826L138.465 55.4066L139.016 53.9388L139.566 52.9298L140.575 52.5629H144.061L147.547 52.2877H147.639L156.078 52.9298L159.931 52.6546L163.875 52.4711L164.793 52.6546L165.343 53.0215L165.71 53.5719L165.985 54.214L166.352 55.4066L166.902 56.7826V57.333L166.811 57.8833L166.627 58.5255L166.444 59.0759L165.893 59.718L165.068 59.9932H164.242L163.141 60.1767L162.499 60.4519L161.949 61.094L161.674 62.0113L161.582 64.6716V67.3318L161.399 72.4688L161.582 73.2027L161.857 73.7531L162.408 74.3035L162.958 74.4869L163.508 74.5787L167.453 74.6704L171.397 74.8539H171.489L175.709 74.7621L179.837 74.5787L184.148 74.7621L188.276 75.0373L196.073 74.8539L196.716 74.7621L197.266 74.5787L197.633 74.3035L198 73.9366L198.183 73.2944L198.275 72.744L198.367 69.7169L198.458 66.5062L198.367 63.479L198.275 60.3601V59.8097L198 59.4428L197.633 58.8924L197.266 58.5255L196.716 58.1585L196.073 57.9751L193.597 58.0668H191.212L190.478 57.8833L189.836 57.2412L188.184 54.3975L186.533 51.2786L185.066 47.7928L183.598 44.2152L182.222 40.6376L180.754 36.9683L179.195 33.4825L177.635 29.9049L176.076 26.4191L174.425 22.9332L172.59 19.4474L170.755 16.0533L169.104 12.5674L167.361 8.98986L164.701 2.38511L164.426 1.74298L164.059 1.00912L163.508 0.825658L162.774 0.733925L155.986 0.55046H155.803L148.464 0.91739L144.887 0.825658L140.392 0.55046L140.117 0.458727V0.55046L137.731 0.366995L134.062 0.0917969L130.576 0.275262L126.999 0.366995L125.99 0.642193L125.256 1.55952L124.981 2.75204V8.71466L125.072 11.8336L125.164 14.8607L125.256 15.4111L125.531 16.2367L126.265 16.9706L127.274 17.2458H131.218L132.228 17.6127L132.594 18.2549L132.503 18.9887L131.127 22.5663L129.751 25.8687L128.191 29.171L126.632 32.3817L125.164 35.5923L123.696 38.8947L122.137 42.1053L120.669 45.316L119.018 48.6184L117.367 51.7373L114.89 57.333L114.34 57.9751L113.606 58.1585L108.469 58.342L107.643 58.4337L106.818 58.8007L106.175 59.6263L106.084 60.6353L106.267 63.6625L106.818 66.5979ZM153.693 22.4746L154.243 23.2084L155.069 25.7769L155.986 28.2537L157.087 30.914L158.096 33.4825L158.188 34.1246L158.096 34.8585L157.729 35.7758L156.904 36.5096L156.078 36.6931L152.409 36.5096L148.556 36.4179L147.822 36.3262L147.088 35.7758L146.446 34.9502L146.263 34.0329L146.446 33.2073L147.547 30.8222L148.648 28.2537L149.565 25.6852L150.391 23.2084L150.941 22.4746L151.767 22.2911H152.684L153.693 22.4746Z" fill="#0B0B0B"/>
<path d="M149.748 31.8312L148.922 33.7576L151.766 33.941L153.142 31.0973L153.784 29.4461L152.316 25.4099L151.95 26.419L151.124 28.9875L149.748 31.8312Z" fill="#EDB31F"/>
<path d="M255.149 22.658L253.773 21.7407L252.397 21.0985L251.021 20.8233L249.462 20.5481L247.719 20.4564H245.701L242.49 20.3647L240.288 20.2729L238.27 20.3647L237.628 20.4564V23.3001L237.536 24.6761L237.445 26.786V29.2627L236.986 32.0147V37.4269L237.17 38.8947V48.2514L237.261 51.7372L237.353 54.4892H238.27L240.288 54.581V44.6738L240.197 41.6467L240.105 39.6285L240.197 37.4269L240.655 34.5832L240.747 32.3817L240.839 27.3364V25.2265L240.747 24.6761L240.38 24.3092L240.197 24.1257L240.564 23.9423L243.683 23.5753L245.976 23.4836L248.177 23.5753L251.48 23.6671H253.406L255.333 23.7588L256.709 23.9423L256.25 23.5753L255.149 22.658Z" fill="#EDB31F"/>
<path d="M205.614 64.5798L205.797 66.5062L205.705 68.5243L205.522 69.9003L205.43 71.2763L205.705 73.2027L205.889 73.9366L206.256 74.3035L206.806 74.5787L207.54 74.7621L209.833 74.9456L211.393 74.8539L212.952 74.6704H220.658L226.712 74.8539L228.272 75.0373H232.766L235.885 74.8539L240.38 74.9456L243.591 74.8539H245.884L247.811 74.7621L255.424 73.5696L259.094 72.8358L264.506 71.0011L267.808 69.2582L271.019 67.0566L273.863 64.5798L276.615 61.9196L277.991 60.5436L279.091 58.9841L280.651 55.4983L281.843 51.829L282.486 50.0861L283.678 46.5085L284.32 42.6557L284.412 38.803V34.8585L284.504 33.0238L284.32 29.3545L283.495 25.5017L282.944 23.6671L282.394 22.0159L280.559 18.7135L279.458 17.2458L278.449 15.6863L276.156 12.5674L273.679 9.90719L270.836 7.52214L267.533 5.59575L264.231 4.12803L262.396 3.39417L260.561 2.84378L257.076 1.65125L253.406 0.733925L251.663 0.55046H249.737L245.884 0.642193L243.591 0.55046L240.38 0.275262H232.766L230.473 0.366995L228.18 0.275262L225.061 0.183529H222.768L218.823 0.366995L217.264 0.55046H214.97L212.677 0.458727L209.466 0.0917969L207.265 0.366995L206.531 0.55046L206.439 0.91739L206.256 1.46779L206.072 2.20165L205.797 4.12803V6.78828L205.889 8.71466V10.7328L205.705 13.393L205.797 15.3194L205.889 16.0533L206.256 16.4202L206.806 16.6954L207.54 16.8789L209.375 16.9706L210.842 16.6954L212.218 16.5119L214.053 16.6954L214.42 16.8789V17.2458L214.236 17.7962V20.6399L214.328 23.7588V26.0521L214.236 28.3454L213.87 31.4644V33.7577L213.778 36.051L213.686 39.1699V46.7837L213.778 51.1869L213.961 54.3058L214.053 56.5991L214.145 57.2412L214.328 57.8833L214.42 58.2503L214.145 58.5255L212.218 58.7089L209.558 58.0668L207.632 58.1585L206.898 58.342L206.256 58.5255L205.981 58.8924L205.705 59.6263L205.522 61.5527L205.614 62.9286V64.5798ZM263.405 66.5062H263.038L263.13 66.3227H263.589V66.4145L263.405 66.5062ZM270.285 62.0113V61.7361H270.56L270.377 61.9196L270.285 62.0113ZM263.038 31.2809L263.405 33.0238L263.68 34.7667L263.772 36.6931L263.68 38.6195L263.497 40.4541L263.222 42.3805L262.213 46.0498L261.479 47.7928L260.561 49.5357L259.461 51.0951L258.268 52.4711L256.8 53.8471L255.241 54.9479L253.406 55.8652L251.755 56.4156L249.92 56.6908L247.902 56.8743H240.38L238.087 56.7826L234.876 56.5991L234.601 56.5074V56.3239L234.785 55.957L234.876 55.4066V53.205L234.785 50.3613L234.693 48.1597V38.9864L234.601 35.9593L234.509 33.9411L234.601 31.7395L234.968 28.8958L235.06 26.6943V24.4927L235.152 23.025V19.4474L235.06 18.897L234.785 18.5301L234.601 18.3466L234.876 18.2549L238.087 17.8879L240.38 17.7962L242.582 17.8879L245.884 17.9797H247.811L249.737 18.0714L251.572 18.2549L253.223 18.6218L254.966 19.4474L256.617 20.4564L258.085 21.5572L259.277 22.9332L260.378 24.4009L261.204 25.9604L261.937 27.7033L262.58 29.4462L263.038 31.2809Z" fill="#0B0B0B"/>
<path d="M287.164 41.0047L287.072 43.1145L286.889 44.9492L286.338 47.1508L285.054 51.0953L283.862 54.6729L283.219 56.5075L281.477 60.3603L280.192 62.1949L277.165 65.2221L274.321 67.9741L271.111 70.3591L267.625 72.469L263.68 74.1202L259.919 75.3127L255.883 76.1383L250.287 77.0556L248.178 77.4226L243.683 77.5143H236.069L233.042 77.6977H228.18L226.62 77.5143L222.951 77.4226L220.658 77.3308L217.539 77.2391H215.429L213.319 77.3308L211.668 77.5143H211.393L211.576 78.982L211.851 79.6241L212.127 80.0828L212.677 80.358L213.319 80.6332L214.42 80.7249L215.704 80.4497L217.814 80.358H223.226L230.932 80.6332L232.491 80.7249L234.051 80.9084H235.702L240.747 80.7249H248.82L250.654 80.6332L252.673 80.2663L258.36 79.3489L262.213 78.5233L266.065 77.3308L269.918 75.6796L273.496 73.5698L276.615 71.093L279.55 68.4328L282.486 65.3138L283.862 63.4792L285.604 59.7182L286.247 57.9752L287.439 54.2142L288.173 52.3795L288.815 50.3614L289.182 48.1598L289.549 44.1236V40.2708L289.641 36.4181V34.3082L289.457 32.3818L288.999 30.3637L288.265 27.7952L287.439 26.144L286.43 24.4928L285.696 23.4838L286.155 25.135L286.614 27.0613L287.164 31.0976L287.256 33.1157L287.164 37.0602V41.0047Z" fill="#EDB31F"/>
<path d="M367.925 47.4274L366.358 46.4475L363.908 46.1536H349.209V55.8547H352.345V50.7592L352.541 50.0732L352.835 49.5832L353.325 49.2893L353.913 49.1913H369.003L368.905 48.7993L367.925 47.4274Z" fill="#EDB31F"/>
<path d="M352.345 24.5957L352.443 24.0078L352.835 23.5178L353.325 23.1258L353.913 22.9299L356.069 23.0279H357.636L359.204 23.1258H363.614L365.182 22.9299L366.75 22.8319H367.24L367.142 22.2439L366.358 21.068L365.084 20.0881L363.222 19.6962H361.36L359.89 19.7942L358.224 19.9901H353.619L352.051 19.8921H350.581L349.209 19.7942L349.111 21.852V23.6158L349.013 25.3796L348.915 26.9475H352.247L352.345 24.5957Z" fill="#EDB31F"/>
<path d="M392.227 25.8697L391.639 27.9275L390.855 29.8873L390.169 31.5532L389.092 33.219L387.622 34.8849L386.74 35.7668L387.622 36.5507L387.916 36.8447L389.288 38.5105L389.483 38.7065L389.875 38.3146L391.443 36.6487L392.521 34.8849L393.305 33.219L393.991 31.1612L394.481 29.2014L394.775 27.3396L394.873 25.1838L394.775 22.93L394.579 20.9702L394.285 19.5003L393.599 18.1284L392.619 16.5606L391.933 15.4827L392.325 17.3445L392.521 19.5983L392.619 21.8521L392.521 23.9099L392.227 25.8697Z" fill="#EDB31F"/>
<path d="M325.692 73.4932L330.003 73.3952L332.943 73.5912H337.255L340.194 73.4932L344.506 73.5912H347.446L353.227 73.7872L356.853 73.9831H364.006L365.966 73.8851L367.926 73.6892L371.944 73.1012L373.903 72.7093L375.765 72.3173L377.725 71.8273L379.489 71.2394L381.253 70.3575L382.919 69.2796L384.486 68.1037L385.956 66.8298L387.23 65.4579L388.504 63.9881L389.484 62.3222L390.366 60.5584L390.954 58.7945L391.346 57.0307L391.542 55.0709L391.64 52.9151L391.542 50.7593L390.464 46.4477L388.504 42.3321L387.23 40.5682L385.76 38.9024L384.094 37.3345L383.604 36.8446L383.408 36.2566L383.604 35.6687L384.094 35.0807L385.564 33.9048L386.74 32.533L387.72 31.0631L389.092 27.7314L389.778 24.1058L389.876 22.3419L389.582 18.4223L388.7 14.8946L386.838 11.5629L384.486 8.72117L381.547 6.46738L378.117 4.70354L374.687 3.52766L372.825 3.13569L369.102 2.54775L365.672 1.66583H363.712L358.715 1.76382L354.403 1.66583L352.933 1.76382L349.406 1.86181L347.25 1.9598H344.31L342.252 2.05779L340.096 1.9598L337.157 1.56784L335.099 1.46985L332.943 1.56784L330.003 1.9598L325.692 1.86181L322.752 1.46985L320.596 1.66583L319.91 1.86181L319.42 2.15578L319.126 2.54775L318.93 3.23368L318.734 4.99752L319.224 7.74126L319.322 9.60309V11.4649L319.224 14.1107L319.322 15.9725L319.42 16.5604L319.616 16.9524L320.008 17.1484L320.596 17.3444L322.458 17.5404L324.908 17.3444L326.77 17.5404L327.064 17.7363V18.1283L326.966 18.6183L326.868 21.362L326.77 22.8319V24.3017L326.672 26.4575L326.77 28.6133L326.966 31.6511L327.064 33.8069L326.966 35.9627L326.868 39.0004L326.77 41.1562V43.312L326.574 44.7818V48.7015L326.672 50.8573L326.868 53.895V56.0508L326.966 56.5407L327.162 56.9327V57.2267L326.868 57.5207L325.104 57.8146L322.458 57.4227L320.596 57.6187L319.91 57.8146L319.518 58.1086L319.322 58.5006L319.126 59.1865L318.832 61.0483V63.7921L318.93 65.6539L318.832 67.5157L318.636 68.9856V70.2595L318.93 72.1213L319.126 72.8073L319.42 73.1012L319.91 73.3952L320.596 73.4932L322.654 73.6892L324.124 73.5912L325.692 73.4932ZM367.534 57.6187L364.006 58.2066H348.426L347.838 58.1086L347.348 57.7166L347.054 57.2267L346.858 56.6387V45.2718L347.054 44.6838L347.348 44.1939L347.838 43.8999L348.426 43.8019H364.006L367.142 44.1939L369.494 45.5658L371.16 47.8196L371.748 51.0532L371.258 53.699L369.886 55.9528L367.534 57.6187ZM386.544 45.9577H386.348L386.446 45.8597L386.544 45.9577ZM346.662 25.2816L346.76 23.5178V21.754L346.858 19.1082L346.956 18.5203L347.348 18.0303L347.838 17.6384L348.426 17.4424L350.582 17.5404L353.717 17.6384H358.127L359.695 17.4424L361.165 17.3444H363.32L366.064 17.8343L368.024 19.3042L369.298 21.264L369.69 23.5178L369.102 25.9676L367.632 27.6334L365.476 28.6133L363.026 28.9073L360.871 29.0053L357.931 29.1033L355.775 29.2013H353.619L350.68 29.1033H348.524L347.838 29.0053L347.25 28.7113L346.858 28.3194L346.662 27.7314V25.2816ZM325.692 65.2619L325.888 65.164H326.182L326.084 65.3599L325.986 65.4579L325.79 65.5559L325.692 65.4579V65.2619Z" fill="#0B0B0B"/>
<path d="M395.657 50.4652L395.265 49.3873L394.286 47.4275L393.306 45.9576L393.796 47.5255L394.188 49.7793L394.384 52.523L394.286 54.9728L393.992 57.2266L393.6 59.1864L392.914 61.3422L391.934 63.302L390.562 65.2619L389.19 67.0257L387.818 68.4956L386.054 69.8674L384.584 71.1413L382.723 72.3172L380.665 73.3951L378.411 74.179L376.451 74.669L374.295 75.0609L372.336 75.3549L370.278 75.8449L368.22 76.1389L365.966 76.3348L364.006 76.4328H356.755L354.501 76.3348L351.561 76.1389L349.504 76.0409H332.845L329.905 75.8449H327.946L325.888 75.9429L324.418 76.1389H324.124L324.418 77.7067L324.614 78.3926L324.908 78.6866L325.398 78.9806L326.084 79.0786L328.24 79.2746L329.71 79.1766L331.277 78.9806L333.335 78.8826H335.491L338.431 79.0786H354.991L357.147 79.1766L360.087 79.3726L362.243 79.4705H366.456L368.122 79.3726L370.18 79.1766L372.336 78.8826L374.295 78.4906L376.353 78.1967L378.411 77.8047L380.469 77.2168L382.429 76.6288L384.682 75.3549L386.642 74.179L388.308 72.9051L389.876 71.5333L391.15 70.0634L392.62 68.3976L393.992 66.3398L394.971 64.086L395.559 62.2241L395.951 60.1663L396.245 58.1085L396.441 55.5608L396.245 53.209L395.657 50.4652Z" fill="#EDB31F"/>
<path d="M471.208 34.9827L469.249 39.5883L466.113 43.606L463.075 46.0557L459.449 47.9175L461.507 50.5633L464.937 48.7015L468.073 46.4477L471.11 42.4301L473.168 37.8245L474.148 33.7089L474.54 28.8093L474.442 25.0857L473.952 22.1459L473.658 21.46L471.894 18.5203L472.58 22.3419L472.678 26.0656L472.286 31.0631L471.208 34.9827Z" fill="#EDB31F"/>
<path d="M433.678 52.7191H433.384L432.012 52.6211H429.954V55.9528H431.62L432.796 56.0508V54.4829L432.894 54.5809H435.246L433.972 53.0131L433.678 52.7191Z" fill="#EDB31F"/>
<path d="M478.459 63.6939L478.165 63.302L477.087 62.812H475.716L475.52 65.4578V68.5935L475.422 71.8272V72.8071L475.52 73.591L475.422 74.7669L474.932 75.4529L473.952 76.0408H472.874L468.954 76.3348L465.427 76.0408L462.095 75.9428L458.665 75.6488L451.904 76.2368H449.258V77.4127L449.454 78.3926L450.14 78.8825L453.668 79.3725L457.195 79.2745L460.625 78.9805L464.153 78.7845L467.68 78.9805L471.11 79.0785L474.638 79.3725L478.165 79.1765L478.655 78.4906L478.459 77.4127L478.655 74.081V70.9453L478.851 67.6136V66.3397L478.557 64.3799L478.459 63.6939Z" fill="#EDB31F"/>
<path d="M436.324 22.9299H438.97L440.832 23.0279L442.889 22.9299H444.261L445.535 23.0279L446.711 22.9299L446.613 22.7339L445.829 21.852L445.045 21.068L444.163 20.2841L443.281 19.8921L442.105 19.7942L440.244 19.8921L439.068 19.9901L437.598 20.1861L435.344 20.2841L433.188 20.1861L431.718 19.8921L430.445 19.7942L429.857 19.6962V21.362L429.759 22.8319V24.3017L429.661 26.3595V29.5932L429.759 31.1611V32.631H430.837L432.012 32.729H432.502V31.749L432.6 29.5932V28.2214L432.698 26.7515V24.0078L432.894 23.4198L433.286 23.0279L433.874 22.8319L436.324 22.9299Z" fill="#EDB31F"/>
<path d="M440.44 64.6739L440.048 64.282L439.362 64.086L437.99 63.89L437.794 66.3398V68.9855L437.696 71.9253L437.598 73.0032V73.6891L437.402 74.571L437.108 75.061L436.324 75.355L435.442 75.4529L434.07 75.6489L430.346 75.8449L426.819 76.1389L422.899 75.9429L419.469 75.5509L412.61 76.0409H405.359L403.595 76.1389V77.4128L403.399 78.3927L403.791 78.9806L407.319 79.2746L410.846 79.0786H418L425.055 78.6867L428.583 78.9806L432.11 79.1766L435.638 78.9806L439.166 78.6867L440.244 78.2947L440.635 77.9027L440.733 77.4128L440.831 74.473V71.6313L441.125 68.6916V67.1237L440.831 65.2619L440.44 64.6739Z" fill="#EDB31F"/>
<path d="M455.138 73.4932L458.666 73.2972L462.194 73.4932L465.721 73.5912L469.249 73.8851L472.777 73.6892L473.266 73.0032L473.071 71.9253L473.266 68.5936L473.462 62.1262V60.8523L473.168 58.9905L473.071 58.3046L472.777 57.9126L471.699 57.4227L468.171 57.3247L464.643 57.5207L463.859 57.4227L463.271 56.9327L462.879 56.4427V54.4829H461.312L460.234 53.1111L457.294 48.9954L457 48.4075V47.6236L457.294 46.9376L457.784 46.4477L461.704 44.2919L464.937 42.0381L467.387 38.5104L468.955 34.6888L470.033 30.6711L470.327 26.3595L470.229 22.8319L469.641 19.3042L468.269 16.0705L466.407 13.0328V12.1509H465.623L464.349 10.191L461.9 7.54528L459.058 5.68345L455.824 4.01761L452.59 2.93971L448.965 2.25377L445.633 1.76381L435.246 1.27386L428.387 1.66582H424.859L421.429 1.56784H417.902L414.472 1.46985H407.515L400.655 1.07788L399.773 1.27386L398.989 1.76381L398.499 2.25377L398.303 2.93971L398.107 6.17341V12.5428L398.205 15.7765V16.8544L398.793 17.4424L400.753 17.6383L406.339 17.0504L406.633 17.1484L406.731 17.7363L406.633 18.8142L406.927 22.5379L407.123 26.2615L406.927 29.9852L406.633 33.7089L407.025 41.0582L406.829 44.7818L406.535 48.5055L406.829 52.2292L406.633 55.9528L406.535 56.5407L406.339 56.9327L405.359 57.3247L402.517 57.4227L399.675 57.1287L398.891 57.0307L398.499 57.5207L398.107 61.1463L398.303 64.772L398.107 68.3977L398.009 72.1213L397.813 73.1012L398.205 73.6892L401.733 73.9831L405.359 73.7872H412.414L419.469 73.3952L422.997 73.6892L426.525 73.8851L430.15 73.6892L433.678 73.3952L434.756 73.0032L435.148 72.6113L435.246 72.1213L435.344 69.1816V66.2418L435.638 63.3021V61.7343L435.344 59.9704L434.952 59.3825L434.56 58.9905L433.874 58.7945L431.228 58.5006L428.485 58.5986L428.093 58.5006L427.701 58.2066L427.505 57.3247V51.7392L427.701 50.6613L427.995 50.3673L428.485 50.1713L429.367 50.2693L430.248 50.4653H431.914L433.58 50.5633L434.658 50.8573L435.54 51.6412L439.95 57.0307L441.909 59.8724L443.771 62.8122L443.869 63.3021V63.7921L443.575 68.0057L443.477 72.2193L443.673 73.1992L444.359 73.6892L447.887 74.1791L451.415 74.0811L455.138 73.4932ZM430.738 34.9827H428.779L428.191 34.7868L427.799 34.4928L427.505 34.0028V33.3169L427.407 31.2591L427.309 29.8872V26.2615L427.407 24.2037V22.8319L427.505 21.362V19.3042L427.603 18.7162L427.799 18.1283L428.191 17.7363L428.779 17.5404L430.738 17.6383L432.012 17.8343L433.384 18.0303L435.246 18.1283L437.206 18.0303L438.48 17.8343L439.852 17.7363L441.811 17.6383L443.575 17.8343L445.045 18.5203L446.319 19.4022L447.299 20.4801L448.181 21.656L448.867 23.1258L449.259 24.5957L449.357 26.2615L449.259 27.9274L448.867 29.4953L448.279 30.8671L447.495 32.141L446.417 33.1209L445.143 33.8069L443.673 34.2968L439.95 34.4928L438.578 34.6888L437.206 34.9827L435.246 35.0807L433.286 34.9827H432.012H430.738Z" fill="#0B0B0B"/>
<path d="M624.467 21.0681L624.075 24.7917L623.977 25.5757L623.585 27.0455L622.997 27.4375L622.409 27.6335L621.625 27.7315H621.233L620.547 27.8295L618.489 27.9275L616.823 28.0254L615.157 27.9275L610.944 28.0254L609.474 28.1234L609.67 28.8094L613.002 29.8873L614.569 30.2792L615.647 30.8672H616.137L618.391 30.7692H623.585L626.328 30.3772L626.426 29.8873L627.112 27.9275L627.308 26.3596L627.406 24.5958V22.342L627.308 19.8922L627.112 16.7565L627.014 14.3067L626.23 13.9147L625.152 12.8368L624.369 12.2489V12.5429L624.467 14.3067L624.565 16.7565V19.2063L624.467 21.0681Z" fill="#EDB31F"/>
<path d="M630.541 52.3271L630.345 50.3672L629.954 48.7014L629.856 48.1134L629.366 47.3295L628.484 45.9577L627.798 44.8798L628.092 46.0556L628.484 47.7215L628.68 49.5833L628.778 51.6411L628.68 53.7969L628.386 56.1487L627.994 58.0105L627.406 59.7744L626.72 61.7342L625.838 63.4L624.858 65.1639L623.584 67.1237L622.016 68.6915L620.35 69.9654L618.783 71.1413L617.019 72.2192L615.255 73.1011L613.491 73.9831L611.825 74.669L609.767 75.3549L608.004 76.1389L606.142 76.6288L603.986 77.1188L601.928 77.4127L599.87 77.6087L598.106 77.5107L594.285 77.4127L590.267 77.6087H588.307L586.152 77.5107L583.604 77.1188L581.742 76.6288L578.116 75.6489L573.903 74.081H573.805L574.883 74.865L576.646 76.0409L578.41 76.8248L580.272 77.5107L582.232 78.0987L584.094 78.5886L587.915 79.7645L589.777 80.2545H592.227L596.245 80.0585L599.968 80.1565L601.83 80.2545L603.79 80.0585L605.946 79.7645L608.102 79.2746L609.865 78.7846L611.727 78.1967L613.687 77.5107L615.353 76.8248L617.313 75.9429L618.881 74.865L620.644 73.7871L622.31 72.7092L623.878 71.4353L625.446 69.7694L626.916 68.0056L627.798 66.2418L628.582 64.3799L629.268 62.5181L629.856 60.6563L630.247 58.7945L630.541 56.6387L630.639 54.2869L630.541 52.3271Z" fill="#EDB31F"/>
<path d="M598.499 19.5003L596.637 19.4023H593.109L591.737 19.5003L590.267 19.7943L589.092 20.1863L588.014 20.8722L587.328 21.4602L586.838 22.1461L586.74 22.832L586.936 23.9099L587.426 24.5959L588.308 25.3798L588.504 24.7918L588.896 24.1059L589.679 23.518L590.757 22.93L592.031 22.5381L593.305 22.2441L594.775 22.1461H598.205L600.067 22.2441L601.536 22.4401V19.9903L600.262 19.6963L598.499 19.5003Z" fill="#EDB31F"/>
<path d="M587.033 49.3873L588.699 49.7793L592.227 50.3672L593.893 50.5632H599.282L601.34 51.0532L603.202 51.4451L603.104 50.8572L602.81 50.3672L601.928 49.7793L600.066 49.0934L598.694 48.7014L597.127 48.2114L595.363 47.8195L593.403 47.5255H588.405L586.348 47.3295L584.388 47.0356L583.31 46.7416L583.604 47.6235L583.8 48.4074L587.033 49.3873Z" fill="#EDB31F"/>
<path d="M578.606 73.0033L580.37 73.5912L584.192 74.6691L586.249 74.9631L588.209 75.0611L592.227 74.9631L594.285 74.8651L596.147 74.9631L599.87 75.0611L601.732 74.8651L605.456 74.1791L608.983 73.1992L612.511 71.8274L615.745 70.0635L618.978 68.1037L621.722 65.5559L622.8 64.0861L623.584 62.5182L624.956 58.9905L625.642 57.3247L626.328 53.699L626.426 51.7392L626.328 49.8774L625.74 46.5457L625.152 44.8799L623.78 41.7441L621.918 39.0004L620.742 37.7265L618.292 35.3747L616.823 34.3948L615.157 33.5129L612.119 32.141L608.787 31.0631L605.26 30.1812L600.164 29.2993L594.481 28.8093L590.659 28.6134L589.091 28.3194L587.131 27.5355L585.563 26.4576L584.486 24.6937V23.8118H584.388L584.192 22.8319L584.486 21.166L585.368 19.7942L586.739 18.8143L588.209 18.0303L589.679 17.4424L591.345 17.1484L594.481 17.0504H596.734L600.654 17.4424L602.614 17.7364L603.006 17.9323L603.496 18.2263L603.79 18.5203L603.888 19.0102V22.5379L604.182 23.9098L604.378 24.5957L604.574 25.0857L604.868 25.2817L605.554 25.4776L607.807 25.8696L610.747 25.5756L613.001 25.4776H618.292L620.448 25.3796H620.938L621.232 25.2817L621.33 25.1837L621.428 24.5957L621.918 22.3419L622.212 19.1082V16.8544L622.114 14.3067L621.918 11.171L621.82 9.40713L621.624 8.81919L621.036 8.42722L619.664 7.34932L616.823 5.2915L615.157 4.40959L613.589 3.62566L608.591 2.1558L605.064 1.37187L603.398 1.0779L599.87 0.685934L598.204 0.293968L596.342 0.0979894L592.717 0L590.953 0.0979894L587.425 0.489955L583.898 1.46986L582.33 2.05781L580.566 2.64575L578.9 3.13571L575.666 4.50758L572.629 6.4674L569.787 8.52521L568.513 9.7011L567.533 11.171L565.965 14.3067L564.691 17.6384L564.103 19.2062L563.81 21.0681L563.614 22.8319L563.712 24.6937L564.397 28.2214L565.475 31.5531L567.043 34.5908L567.925 36.1587L569.101 37.4325L570.375 38.6084L571.747 39.5883L574.686 41.4502L578.116 42.822L581.35 43.8019L584.78 44.4879L586.739 44.7819L588.405 44.9778H593.697L595.853 45.4678L599.38 46.4477L600.85 46.9377L603.006 47.7216L604.476 48.6035L605.26 49.7794L605.652 51.3472L605.26 53.1111L604.476 54.6789L603.202 56.0508L601.536 56.9327L599.772 57.2267L598.008 57.4227L595.951 57.3247H591.149L588.405 57.1287L586.935 56.9327L584.094 56.3448L582.918 56.0508L582.526 55.8548L582.036 55.4629L581.742 54.9729L581.644 54.581L581.84 51.8372V50.7593L581.546 48.9955L581.252 48.4075L581.056 47.9176L580.762 47.5256L580.174 47.3296L578.214 47.1336L576.94 47.3296L575.47 47.5256L573.511 47.6236H571.453L569.885 47.4276L568.513 47.3296H566.455L565.671 47.6236L564.789 48.4075L564.005 49.3874L563.712 50.0734L563.81 53.1111L564.005 58.0106L564.103 62.3222L564.201 64.478L564.299 65.164L564.495 65.6539L566.161 67.0258L570.963 70.3575L572.825 71.2394L576.744 72.5133L578.606 73.0033Z" fill="#0B0B0B"/>
<path d="M547.151 29.0055C547.053 29.0055 547.151 29.0055 547.151 29.0055C546.367 29.0055 545.387 29.0055 544.309 29.1035C543.819 29.1035 543.428 29.2015 542.938 29.2995C544.701 28.7115 546.857 29.0055 547.151 29.0055Z" fill="#DC2E2F"/>
<path d="M552.639 25.3797C552.247 25.2817 551.953 20.5781 551.757 18.5203C551.561 16.4625 550.287 15.0906 547.739 12.1509C545.191 9.21117 543.721 8.03529 541.958 7.34935C540.194 6.66342 534.608 4.6056 530.591 3.33172C529.807 3.13574 528.925 2.93975 527.847 2.84176C527.063 2.74377 526.083 2.74377 525.201 2.74377C520.792 2.74377 515.206 3.33172 510.307 3.33172C502.957 3.33172 502.369 3.91967 496.98 5.48752C491.59 6.95739 490.512 7.64333 487.083 12.2489C483.653 16.8545 481.987 21.558 481.987 21.558C481.105 26.7516 481.595 26.7516 481.987 28.5154C482.183 29.4953 483.457 29.6913 484.927 29.6913C485.025 28.7114 487.965 27.3395 489.141 26.6536C490.316 25.9676 492.864 26.4576 494.922 27.2415C496.588 27.9274 500.018 30.1812 501.193 30.9652C501.389 30.9652 501.683 30.9652 501.977 30.9652C504.721 30.9652 508.053 30.6712 513.834 30.6712C515.892 30.6712 518.342 30.6712 521.184 30.7692C522.555 30.8672 523.731 30.8672 524.809 30.8672C533.628 30.8672 531.767 29.3973 537.058 29.3973H537.548C537.94 29.3973 538.332 29.3973 538.724 29.3973H539.018C539.41 29.1033 540.292 28.7114 541.958 28.1234C545.093 27.0455 548.719 27.9275 550.483 28.5154C551.757 28.3194 552.541 28.1234 552.835 27.9275C553.717 27.4375 553.031 25.4777 552.639 25.3797ZM485.613 16.9525C485.809 15.3846 488.847 14.8947 488.847 14.8947C487.965 17.7364 485.417 18.5203 485.613 16.9525ZM498.548 7.9373C499.038 6.36944 502.075 6.46743 502.075 6.46743C500.703 9.11319 498.058 9.50515 498.548 7.9373ZM499.43 18.4223C499.626 16.8545 502.565 16.3645 502.565 16.3645C501.781 19.2063 499.234 19.9902 499.43 18.4223ZM512.364 11.6609C511.286 10.4851 512.854 7.83931 512.854 7.83931C514.52 10.3871 513.442 12.9348 512.364 11.6609ZM528.827 19.2063C527.259 19.5982 525.789 16.9525 525.789 16.9525C528.729 16.6585 530.395 18.8143 528.827 19.2063ZM528.827 9.11319C527.259 9.50515 525.789 6.8594 525.789 6.8594C528.729 6.56543 530.395 8.72122 528.827 9.11319ZM543.231 16.6585C541.958 15.6786 543.036 12.8368 543.036 12.8368C545.191 14.9926 544.505 17.6384 543.231 16.6585Z" fill="#DC2E2F"/>
<path d="M493.5 38L494.5 35.5H495L500.5 37.5L510 41.5V46.5C509.667 47.1667 508.9 48.6 508.5 49C508 49.5 502 51 502 51.5C502 51.9 497 50.6667 494.5 50L491.5 48V44L493.5 38Z" fill="white"/>
<path d="M529.5 49.5L527 45C527.333 44.1667 528.2 42.5 529 42.5C529.8 42.5 534 38.8333 536 37L542 35L543 36.5L545 39.5L546 47.5L538.5 51L529.5 49.5Z" fill="white"/>
<path d="M558.42 65.5558C558.42 65.5558 556.657 69.3775 553.227 73.1011C549.797 76.8248 548.621 77.3148 543.134 78.5886C537.646 79.7645 537.156 80.3525 529.611 80.3525C522.066 80.3525 513.051 81.4304 508.935 80.3525C504.819 79.2746 499.136 77.6087 497.372 77.1188C495.608 76.6288 494.04 75.6489 491.493 73.2971C491.395 73.1991 491.199 73.1011 491.101 72.9052C492.08 73.4931 492.962 73.8851 494.04 74.179C494.432 74.277 495.02 74.473 495.804 74.669C498.254 75.3549 502.37 76.5308 505.505 77.3148C506.975 77.7067 508.935 77.8047 511.679 77.8047C513.932 77.8047 516.284 77.7067 518.832 77.6087C521.478 77.5107 524.124 77.4128 526.573 77.4128C532.747 77.4128 534.511 77.1188 538.136 76.2369C538.822 76.0409 539.606 75.8449 540.586 75.6489C546.465 74.375 548.229 73.6891 552.247 69.4755C555.971 65.5558 557.832 61.5382 557.93 61.4402L558.126 61.0483L558.224 60.6563C558.322 60.4603 558.322 60.2643 558.322 60.0684C558.91 61.3422 559.302 61.3422 558.42 65.5558Z" fill="#EDB31F"/>
<path d="M555.285 59.8724C555.187 60.1664 555.187 60.4604 555.089 60.7543C555.089 60.7543 553.423 64.38 549.993 67.9077C546.564 71.4354 545.486 71.9253 540.096 73.1012C534.707 74.2771 534.217 74.7671 526.769 74.7671C521.87 74.7671 516.186 75.159 511.875 75.159C509.719 75.159 507.759 75.061 506.485 74.7671C502.468 73.7871 496.882 72.1213 495.118 71.6313C493.354 71.1414 491.885 70.1615 489.337 67.9077C488.553 67.2218 487.867 66.6338 487.279 66.1438C486.103 64.968 485.417 64.086 485.221 63.0081C485.025 61.4403 484.829 57.7166 484.339 57.7166C483.947 57.7166 483.261 56.2468 484.339 55.6588C485.319 55.1689 492.179 54.5809 498.45 54.5809C498.842 54.5809 499.234 54.5809 499.626 54.5809C499.822 54.5809 500.018 54.5809 500.116 54.5809C505.407 54.5809 503.448 53.405 512.365 53.405C513.443 53.405 514.618 53.405 515.99 53.503C517.264 53.503 518.44 53.601 519.518 53.601C519.812 53.895 520.204 54.4829 520.106 55.8548C519.91 58.6965 518.636 60.9503 519.616 62.2242C520.596 63.5961 521.968 66.2418 522.654 63.6941C523.34 61.2443 524.418 60.6564 523.732 58.5986C523.144 56.4428 522.752 55.5608 523.732 55.3648C524.712 55.1689 526.279 53.895 526.475 55.6588C526.671 57.5207 526.475 59.1865 530.003 59.0885C533.531 58.9905 533.825 55.4628 534.903 54.4829C535.589 53.797 536.372 53.601 536.862 53.405C537.254 53.405 537.646 53.405 538.038 53.503C542.35 53.797 544.8 54.5809 547.641 54.5809C547.739 54.5809 547.935 54.5809 548.033 54.5809C549.405 54.5809 550.875 54.3849 552.051 54.3849C553.619 54.3849 554.795 54.5809 554.991 55.2669C555.481 56.5407 555.873 56.7367 555.285 59.8724Z" fill="#DC2E2F"/>
<path d="M517.264 36.1585C517.264 36.1585 516.676 39.0002 512.462 39.0982C509.62 39.1962 504.231 34.6886 499.233 31.7489C499.233 31.7489 499.233 31.7489 499.135 31.7489C498.645 31.5529 498.057 31.161 497.372 30.769C497.372 30.769 497.372 30.769 497.274 30.769C492.766 28.0253 488.944 29.0052 487.67 29.4951C487.376 29.5931 487.279 29.6911 487.279 29.6911C487.279 29.6911 487.181 29.6911 487.181 29.7891C485.613 30.475 484.927 32.0429 483.653 34.5907C483.653 34.5907 486.887 32.1409 492.57 35.1786C492.57 35.1786 493.158 35.4726 494.138 36.0605C492.864 36.8445 490.218 38.9022 489.826 42.2339C489.238 46.7415 491.1 50.0732 493.256 51.1511C495.412 52.131 501.683 55.0708 506.779 51.7391C510.796 49.1913 511.188 44.9777 511.188 43.3118C511.776 43.4098 512.364 43.4098 512.854 43.3118C517.852 42.2339 517.264 36.1585 517.264 36.1585ZM509.032 45.2717C508.837 46.1536 507.563 48.8973 504.427 49.1913C501.291 49.4853 495.902 49.9752 494.432 47.8194C492.962 45.6636 491.492 46.6435 492.178 43.2138C492.668 40.6661 494.04 37.5304 494.628 36.1585C495.216 36.4525 495.902 36.8444 496.686 37.2364C496 38.3143 495.412 39.6862 495.51 41.0581C495.706 43.7038 496 47.0355 499.331 47.5255C502.663 48.0154 505.015 48.3094 506.583 45.9576C508.053 43.6058 509.228 44.3897 509.032 45.2717Z" fill="#DC2E2F"/>
<path d="M499.136 31.6511C498.646 31.4551 498.058 31.0631 497.372 30.6711C497.96 30.9651 498.548 31.3571 499.136 31.6511Z" fill="#DC2E2F"/>
<path d="M542.937 29.2992C542.839 29.3972 542.643 29.3972 542.447 29.3972C542.545 29.3972 542.741 29.3972 542.937 29.2992Z" fill="#DC2E2F"/>
<path d="M559.106 29.9851C558.714 29.8871 558.421 24.0077 558.225 21.4599C558.029 18.9122 557.441 16.5604 554.893 12.9347C553.129 10.5829 551.169 9.70101 549.993 8.81909C550.091 8.91708 550.189 9.01507 550.287 9.21105L550.483 9.40704C552.345 12.6407 554.403 14.0126 554.697 17.1483C554.795 17.7363 555.285 18.8142 555.383 19.5981C555.481 20.48 555.579 22.0479 555.677 22.9298C556.069 23.5177 556.363 24.1057 556.559 24.8896C557.049 27.0454 556.167 29.1032 554.501 30.0831C553.913 30.4751 552.835 30.7691 551.561 30.965C550.581 29.6912 549.503 29.1032 547.348 29.0052H547.25C546.466 29.0052 545.584 29.0052 544.506 29.1032C544.016 29.1032 543.624 29.2012 543.134 29.2992C543.036 29.3972 542.84 29.3972 542.644 29.3972C542.644 29.3972 542.644 29.3972 542.546 29.3972C539.9 30.1811 536.863 32.1409 533.923 34.1008C530.199 36.5505 526.769 39.0003 524.614 39.0003C520.4 38.9023 519.812 36.0606 519.812 36.0606C519.812 36.0606 519.224 42.136 524.222 43.0179C524.712 43.1159 525.202 43.1159 525.888 43.0179C525.888 44.6838 526.28 48.8974 530.297 51.4451C535.393 54.6788 541.664 51.8371 543.82 50.8572C545.976 49.8773 547.838 46.4476 547.25 41.94C546.858 38.6083 544.212 36.6485 542.938 35.7666C543.722 35.2766 544.31 34.9827 544.408 34.8847C547.054 34.8847 549.895 34.7867 552.247 34.4927C555.775 34.1007 558.519 33.6108 559.204 33.1208C560.184 32.4349 559.498 30.0831 559.106 29.9851ZM544.702 43.1159C545.388 46.5456 543.918 45.5657 542.448 47.7215C540.978 49.8773 535.589 49.3873 532.453 49.0934C529.317 48.7994 528.043 46.0556 527.847 45.1737C527.651 44.2918 528.827 43.5079 530.395 45.8597C531.963 48.2114 534.315 47.9175 537.646 47.4275C540.978 46.9376 541.272 43.6059 541.468 40.9601C541.566 39.5882 540.88 38.2164 540.292 37.1385C541.076 36.7465 541.762 36.3545 542.35 36.0606C542.84 37.5304 544.212 40.5682 544.702 43.1159Z" fill="#DC2E2F"/>
<path d="M490.219 36.7464C490.219 36.7464 484.241 35.2765 481.301 36.7464C478.362 38.2163 479.734 39.5881 480.615 41.646C481.497 43.8018 481.889 45.8596 483.653 42.7239C485.417 39.4901 486.593 40.1761 487.965 40.1761C489.337 40.2741 490.219 36.7464 490.219 36.7464Z" fill="#DC2E2F"/>
<path d="M488.455 43.2141C489.043 42.3322 483.751 46.5458 482.477 47.3297C481.203 48.1137 481.497 50.2694 481.301 52.1313C481.105 53.9931 479.146 54.777 482.085 54.3851C485.025 53.9931 490.121 52.5232 492.08 53.1112C494.04 53.6011 484.829 48.7016 488.455 43.2141Z" fill="#DC2E2F"/>
<path d="M547.152 37.4324C547.152 37.4324 550.287 42.038 549.993 43.0179C549.699 43.9978 551.561 45.3697 554.893 44.2918C558.225 43.2139 561.36 47.7214 561.458 44.1938C561.556 40.6661 562.732 38.6083 561.458 37.4324C560.184 36.2565 556.069 35.2766 554.207 36.0605C552.443 36.8445 547.152 37.4324 547.152 37.4324Z" fill="#DC2E2F"/>
<path d="M549.405 45.5657C549.405 45.5657 550.09 49.0933 547.837 50.5632C545.583 52.0331 542.839 52.425 547.837 52.523C552.834 52.621 554.99 51.8371 556.852 53.307C558.812 54.7768 559.498 55.9527 559.596 53.307C559.694 50.6612 558.42 50.0733 559.596 48.8974C560.771 47.7215 559.792 47.0355 558.91 46.5456C558.028 46.0556 557.93 44.9777 555.97 46.0556C554.01 47.1335 551.658 47.2315 551.07 46.5456C550.482 45.8596 549.405 45.5657 549.405 45.5657Z" fill="#DC2E2F"/>
<path d="M499.136 31.6511C498.646 31.4551 498.058 31.0631 497.372 30.6711C497.96 30.9651 498.548 31.3571 499.136 31.6511Z" fill="#DC2E2F"/>
<path d="M542.937 29.2992C542.839 29.3972 542.643 29.3972 542.447 29.3972C542.545 29.3972 542.741 29.3972 542.937 29.2992Z" fill="#DC2E2F"/>
</svg>
